<?xml version="1.0" encoding="UTF-8" standalone="no"?>
<svg
   xmlns:dc="http://purl.org/dc/elements/1.1/"
   xmlns:cc="http://creativecommons.org/ns#"
   xmlns:rdf="http://www.w3.org/1999/02/22-rdf-syntax-ns#"
   xmlns:svg="http://www.w3.org/2000/svg"
   xmlns="http://www.w3.org/2000/svg"
   xmlns:sodipodi="http://sodipodi.sourceforge.net/DTD/sodipodi-0.dtd"
   xmlns:inkscape="http://www.inkscape.org/namespaces/inkscape"
   id="svg2"
   version="1.1"
   inkscape:version="0.48.2 r9819"
   width="150"
   height="130"
   sodipodi:docname="cartogram-edit.svg">
  <metadata
     id="metadata113">
    <rdf:RDF>
      <cc:Work
         rdf:about="">
        <dc:format>image/svg+xml</dc:format>
        <dc:type
           rdf:resource="http://purl.org/dc/dcmitype/StillImage" />
        <dc:title></dc:title>
      </cc:Work>
    </rdf:RDF>
  </metadata>
  <defs
     id="defs111" />
  <sodipodi:namedview
     pagecolor="#ffffff"
     bordercolor="#666666"
     borderopacity="1"
     objecttolerance="10"
     gridtolerance="10"
     guidetolerance="10"
     inkscape:pageopacity="0"
     inkscape:pageshadow="2"
     inkscape:window-width="1229"
     inkscape:window-height="990"
     id="namedview109"
     showgrid="false"
     inkscape:zoom="3.5881183"
     inkscape:cx="98.55235"
     inkscape:cy="41.417546"
     inkscape:window-x="0"
     inkscape:window-y="0"
     inkscape:window-maximized="0"
     inkscape:current-layer="svg2" />
  <path
     d="m 0.42479313,62.339636 0,3.746713 0,3.746646 0,3.746713 0,3.746646 3.74671317,0 0,-3.746646 3.7466455,0 0,3.746646 0,3.746713 0,3.746712 -3.7466455,0 0,-3.746712 -3.74671317,0 0,3.746712 0,3.746649 0,3.746712 3.74671317,0 0,3.746646 3.7466455,0 0,3.746706 3.7467132,0 0,3.746648 0,3.74671 3.746645,0 0,3.74672 3.746714,0 3.746712,0 3.746646,0 3.746713,0 0,-3.74672 0,-3.74671 0,-3.746648 0,-3.746706 0,-3.746646 -3.746713,0 -3.746646,0 0,-3.746712 -3.746712,0 0,-3.746649 -3.746714,0 0,-3.746712 0,-3.746713 0,-3.746646 0,-3.746713 0,-3.746646 -3.746645,0 -3.7467132,0 -3.7466455,0 0,-3.746713 -3.74671317,0 z"
     id="path6"
     inkscape:connector-curvature="0" />
  <path
     d="m 0.42479313,58.592924 0,3.746712 3.74671317,0 0,3.746713 3.7466455,0 3.7467132,0 3.746645,0 0,-3.746713 0,-3.746712 -3.746645,0 -3.7467132,0 -3.7466455,0 -3.74671317,0 z"
     id="path8"
     inkscape:connector-curvature="0" />
  <path
     d="m 4.1715063,47.35292 0,3.746645 -3.74671317,0 0,3.746713 0,3.746646 3.74671317,0 3.7466455,0 3.7467132,0 3.746645,0 3.746714,0 0,-3.746646 -3.746714,0 0,-3.746713 0,-3.746645 -3.746645,0 -3.7467132,0 -3.7466455,0 z"
     id="path10"
     inkscape:connector-curvature="0" />
  <path
     d="m 15.41151,66.086349 0,3.746646 0,3.746713 0,3.746646 0,3.746713 0,3.746712 3.746714,0 0,-3.746712 0,-3.746713 0,-3.746646 0,-3.746713 3.746712,0 0,-3.746646 -3.746712,0 -3.746714,0 z"
     id="path12"
     inkscape:connector-curvature="0" />
  <path
     d="m 26.651582,66.084748 11.240072,0 0,11.240004 -11.240072,0 z"
     id="path14"
     inkscape:connector-curvature="0" />
  <path
     d="m 34.14494,77.326354 0,3.746713 -3.746645,0 0,3.746712 0,3.746649 3.746645,0 3.746714,0 0,-3.746649 0,-3.746712 0,-3.746713 -3.746714,0 z"
     id="path16"
     inkscape:connector-curvature="0" />
  <path
     d="m 52.878371,47.35292 0,3.746645 0,3.746713 -3.746646,0 0,3.746646 3.746646,0 3.746712,0 3.746713,0 0,-3.746646 0,-3.746713 -3.746713,0 0,-3.746645 -3.746712,0 z"
     id="path18"
     inkscape:connector-curvature="0" />
  <path
     d="m 52.878371,24.872777 0,3.746712 0,3.746646 0,3.746713 0,3.746646 0,3.746712 0,3.746714 3.746712,0 0,3.746645 3.746713,0 0,-3.746645 0,-3.746714 0,-3.746712 -3.746713,0 0,-3.746646 0,-3.746713 0,-3.746646 3.746713,0 0,-3.746712 -3.746713,0 -3.746712,0 z"
     id="path20"
     inkscape:connector-curvature="0" />
  <path
     d="m 56.625083,28.619489 0,3.746646 0,3.746713 0,3.746646 3.746713,0 0,3.746712 3.746646,0 3.746712,0 0,-3.746712 0,-3.746646 0,-3.746713 0,-3.746646 -3.746712,0 0,3.746646 -3.746646,0 0,-3.746646 -3.746713,0 z"
     id="path22"
     inkscape:connector-curvature="0" />
  <path
     d="m 60.371796,43.606206 0,3.746714 0,3.746645 0,3.746713 0,3.746646 0,3.746712 0,3.746713 3.746646,0 0,3.746646 0,3.746713 3.746712,0 0,-3.746713 3.746647,0 0,-3.746646 0,-3.746713 0,-3.746712 0,-3.746646 0,-3.746713 0,-3.746645 -3.746647,0 0,-3.746714 -3.746712,0 -3.746646,0 z"
     id="path24"
     inkscape:connector-curvature="0" />
  <path
     d="m 67.865154,24.872777 0,3.746712 3.746647,0 3.746712,0 0,-3.746712 -3.746712,0 -3.746647,0 z m 7.493359,3.746712 0,3.746646 0,3.746713 0,3.746646 0,3.746712 0,3.746714 3.746647,0 3.746712,0 3.746714,0 0,-3.746714 3.746646,0 0,-3.746712 0,-3.746646 -3.746646,0 0,3.746646 -3.746714,0 0,-3.746646 0,-3.746713 0,-3.746646 -3.746712,0 -3.746647,0 z"
     id="path26"
     inkscape:connector-curvature="0" />
  <path
     d="m 79.10516,47.35292 0,3.746645 0,3.746713 0,3.746646 0,3.746712 0,3.746713 3.746712,0 3.746714,0 0,3.746646 3.746646,0 0,-3.746646 3.746716,0 0,-3.746713 0,-3.746712 0,-3.746646 0,-3.746713 -3.746716,0 0,3.746713 -3.746646,0 0,-3.746713 0,-3.746645 -3.746714,0 -3.746712,0 z"
     id="path28"
     inkscape:connector-curvature="0" />
  <path
     d="m 97.838586,66.086349 0,3.746646 -3.746638,0 -3.746716,0 0,3.746713 -3.746646,0 0,3.746646 3.746646,0 3.746716,0 3.746638,0 3.746714,0 3.74671,0 3.74665,0 3.74671,0 3.74664,0 0,-3.746646 -3.74664,0 -3.74671,0 -3.74665,0 0,-3.746713 -3.74671,0 0,-3.746646 -3.746714,0 z"
     id="path30"
     inkscape:connector-curvature="0" />
  <path
     d="m 75.358513,92.31314 0,3.746646 0,3.746706 3.746647,0 3.746712,0 3.746714,0 3.746646,0 0,3.746648 0,3.74671 0,3.74672 0,3.74666 3.746716,0 0,3.74668 3.746638,0 0,3.74669 3.746714,0 0,-3.74669 3.74671,0 0,-3.74668 0,-3.74666 0,-3.74672 0,-3.74671 0,-3.746648 -3.74671,0 -3.746714,0 0,-3.746706 -3.746638,0 -3.746716,0 -3.746646,0 -3.746714,0 0,-3.746646 -3.746712,0 -3.746647,0 z m 22.480073,29.97346 -3.746638,0 0,3.74669 3.746638,0 0,-3.74669 z"
     id="path32"
     inkscape:connector-curvature="0" />
  <path
     d="m 101.5853,66.086349 0,3.746646 3.74671,0 0,3.746713 3.74665,0 0,-3.746713 0,-3.746646 -3.74665,0 -3.74671,0 z"
     id="path34"
     inkscape:connector-curvature="0" />
  <path
     d="m 97.838586,62.339636 0,3.746713 3.746714,0 3.74671,0 3.74665,0 0,3.746646 0,3.746713 3.74671,0 3.74664,0 3.74672,0 0,-3.746713 -3.74672,0 0,-3.746646 0,-3.746713 -3.74664,0 -3.74671,0 -3.74665,0 -3.74671,0 -3.746714,0 z"
     id="path36"
     inkscape:connector-curvature="0" />
  <path
     d="m 116.57201,58.592924 0,3.746712 0,3.746713 0,3.746646 3.74672,0 0,-3.746646 0,-3.746713 0,-3.746712 -3.74672,0 z"
     id="path38"
     inkscape:connector-curvature="0" />
  <path
     d="m 101.5853,43.606206 0,3.746714 -3.746714,0 0,3.746645 -3.746638,0 0,3.746713 0,3.746646 3.746638,0 3.746714,0 0,3.746712 3.74671,0 3.74665,0 3.74671,0 3.74664,0 0,-3.746712 -3.74664,0 0,-3.746646 0,-3.746713 0,-3.746645 -3.74671,0 0,-3.746714 -3.74665,0 -3.74671,0 z"
     id="path40"
     inkscape:connector-curvature="0" />
  <path
     d="m 112.82537,47.35292 0,3.746645 0,3.746713 0,3.746646 3.74664,0 3.74672,0 0,3.746712 0,3.746713 3.74671,0 0,-3.746713 3.74664,0 0,-3.746712 0,-3.746646 0,-3.746713 -3.74664,0 0,-3.746645 -3.74671,0 -3.74672,0 -3.74664,0 z"
     id="path42"
     inkscape:connector-curvature="0" />
  <path
     d="m 116.57201,21.126063 0,3.746714 -3.74664,0 0,3.746712 0,3.746646 -3.74671,0 -3.74665,0 -3.74671,0 0,3.746713 3.74671,0 0,3.746646 -3.74671,0 0,3.746712 3.74671,0 3.74665,0 0,3.746714 3.74671,0 3.74664,0 3.74672,0 0,-3.746714 0,-3.746712 3.74671,0 0,-3.746646 0,-3.746713 0,-3.746646 0,-3.746712 0,-3.746714 -3.74671,0 -3.74672,0 z m 7.49343,18.733431 0,3.746712 3.74664,0 3.74672,0 0,-3.746712 -3.74672,0 -3.74664,0 z"
     id="path44"
     inkscape:connector-curvature="0" />
  <path
     d="m 124.06544,28.619489 0,3.746646 0,3.746713 0,3.746646 3.74664,0 0,-3.746646 3.74672,0 3.74665,0 0,-3.746713 0,-3.746646 -3.74665,0 -3.74672,0 -3.74664,0 z"
     id="path46"
     inkscape:connector-curvature="0" />
  <path
     d="m 135.30545,28.619489 0,3.746646 0,3.746713 3.74671,0 3.74671,0 0,-3.746713 0,-3.746646 -3.74671,0 -3.74671,0 z"
     id="path48"
     inkscape:connector-curvature="0" />
  <path
     d="m 127.81208,21.126063 0,3.746714 -3.74664,0 0,3.746712 3.74664,0 3.74672,0 3.74665,0 3.74671,0 3.74671,0 3.74665,0 3.74671,0 0,-3.746712 0,-3.746714 -3.74671,0 0,3.746714 -3.74665,0 -3.74671,0 0,-3.746714 -3.74671,0 -3.74665,0 -3.74672,0 z"
     id="path50"
     inkscape:connector-curvature="0" />
  <path
     d="m 124.06544,17.379418 0,3.746645 0,3.746714 3.74664,0 0,-3.746714 3.74672,0 0,-3.746645 -3.74672,0 -3.74664,0 z"
     id="path52"
     inkscape:connector-curvature="0" />
  <path
     d="m 131.5588,13.632706 0,3.746712 0,3.746645 3.74665,0 3.74671,0 0,-3.746645 0,-3.746712 -3.74671,0 -3.74665,0 z"
     id="path54"
     inkscape:connector-curvature="0" />
  <path
     d="m 135.30545,6.1393466 0,3.7467126 0,3.7466468 3.74671,0 3.74671,0 0,-3.7466468 0,-3.7467126 -3.74671,0 -3.74671,0 z"
     id="path56"
     inkscape:connector-curvature="0" />
  <path
     d="m 0.42479313,114.79162 0,3.74669 3.74671317,0 0,-3.74669 -3.74671317,0 z m 3.74671317,3.74669 0,3.74669 3.7466455,0 0,-3.74669 -3.7466455,0 z m 3.7466455,3.74669 0,3.74668 3.7467132,0 3.746645,0 0,-3.74668 -3.746645,0 -3.7467132,0 z"
     id="path58"
     inkscape:connector-curvature="0" />
  <path
     d="m 34.14494,58.592924 0,3.746712 3.746714,0 3.746712,0 3.746646,0 0,-3.746712 -3.746646,0 -3.746712,0 -3.746714,0 z"
     id="path61"
     inkscape:connector-curvature="0" />
  <path
     d="m 15.41151,58.592924 0,3.746712 0,3.746713 3.746714,0 3.746712,0 0,-3.746713 0,-3.746712 -3.746712,0 -3.746714,0 z"
     id="path63"
     inkscape:connector-curvature="0" />
  <path
     d="m 22.904936,66.086349 0,3.746646 -3.746712,0 0,3.746713 0,3.746646 0,3.746713 3.746712,0 0,-3.746713 3.746646,0 0,-3.746646 0,-3.746713 0,-3.746646 -3.746646,0 z"
     id="path65"
     inkscape:connector-curvature="0" />
  <path
     d="m 22.904936,77.326354 0,3.746713 -3.746712,0 0,3.746712 0,3.746649 3.746712,0 0,3.746712 3.746646,0 3.746713,0 0,-3.746712 0,-3.746649 0,-3.746712 3.746645,0 0,-3.746713 -3.746645,0 -3.746713,0 -3.746646,0 z"
     id="path67"
     inkscape:connector-curvature="0" />
  <path
     d="m 22.904936,58.592924 0,3.746712 3.746646,0 3.746713,0 3.746645,0 0,-3.746712 -3.746645,0 -3.746713,0 -3.746646,0 z"
     id="path69"
     inkscape:connector-curvature="0" />
  <path
     d="m 22.904936,62.339636 0,3.746713 3.746646,0 3.746713,0 3.746645,0 0,-3.746713 -3.746645,0 -3.746713,0 -3.746646,0 z"
     id="path71"
     inkscape:connector-curvature="0" />
  <path
     d="m 34.14494,62.339636 0,3.746713 3.746714,0 3.746712,0 3.746646,0 0,-3.746713 -3.746646,0 -3.746712,0 -3.746714,0 z"
     id="path73"
     inkscape:connector-curvature="0" />
  <path
     d="m 37.891654,66.084748 11.240071,0 0,7.493359 -11.240071,0 z"
     id="path75"
     inkscape:connector-curvature="0" />
  <path
     d="m 49.131725,69.832995 0,3.746713 -3.746713,0 -3.746646,0 -3.746712,0 0,3.746646 3.746712,0 3.746646,0 0,3.746713 3.746713,0 3.746646,0 0,-3.746713 0,-3.746646 0,-3.746713 -3.746646,0 z"
     id="path77"
     inkscape:connector-curvature="0" />
  <path
     d="m 37.891654,77.326354 0,3.746713 0,3.746712 0,3.746649 -3.746714,0 -3.746645,0 0,3.746712 3.746645,0 0,3.746646 0,3.746706 3.746714,0 0,-3.746706 3.746712,0 0,3.746706 0,3.746648 0,3.74671 0,3.74672 3.746646,0 0,-3.74672 3.746713,0 3.746646,0 0,-3.74671 0,-3.746648 3.746712,0 0,-3.746706 3.746713,0 0,-3.746646 -3.746713,0 0,-3.746712 0,-3.746649 0,-3.746712 -3.746712,0 -3.746646,0 -3.746713,0 0,-3.746713 -3.746646,0 -3.746712,0 z"
     id="path79"
     inkscape:connector-curvature="0" />
  <path
     d="m 45.385012,58.592924 0,3.746712 0,3.746713 3.746713,0 0,3.746646 3.746646,0 0,-3.746646 0,-3.746713 0,-3.746712 -3.746646,0 -3.746713,0 z"
     id="path81"
     inkscape:connector-curvature="0" />
  <path
     d="m 52.878371,58.592924 0,3.746712 0,3.746713 0,3.746646 0,3.746713 3.746712,0 3.746713,0 3.746646,0 0,-3.746713 0,-3.746646 -3.746646,0 0,-3.746713 0,-3.746712 -3.746713,0 -3.746712,0 z"
     id="path83"
     inkscape:connector-curvature="0" />
  <path
     d="m 52.878371,73.579708 0,3.746646 0,3.746713 3.746712,0 3.746713,0 3.746646,0 0,-3.746713 0,-3.746646 -3.746646,0 -3.746713,0 -3.746712,0 z"
     id="path85"
     inkscape:connector-curvature="0" />
  <path
     d="m 56.625083,81.073067 0,3.746712 0,3.746649 0,3.746712 3.746713,0 0,3.746646 3.746646,0 3.746712,0 0,-3.746646 0,-3.746712 -3.746712,0 -3.746646,0 0,-3.746649 3.746646,0 0,-3.746712 -3.746646,0 -3.746713,0 z"
     id="path87"
     inkscape:connector-curvature="0" />
  <path
     d="m 64.118442,81.073067 0,3.746712 -3.746646,0 0,3.746649 3.746646,0 3.746712,0 0,3.746712 3.746647,0 0,-3.746712 0,-3.746649 0,-3.746712 -3.746647,0 -3.746712,0 z"
     id="path89"
     inkscape:connector-curvature="0" />
  <path
     d="m 64.118442,73.579708 0,3.746646 0,3.746713 3.746712,0 3.746647,0 3.746712,0 3.746647,0 3.746712,0 0,-3.746713 3.746714,0 0,-3.746646 -3.746714,0 -3.746712,0 -3.746647,0 -3.746712,0 -3.746647,0 -3.746712,0 z"
     id="path91"
     inkscape:connector-curvature="0" />
  <path
     d="m 71.611801,81.073067 0,3.746712 0,3.746649 0,3.746712 3.746712,0 3.746647,0 3.746712,0 0,-3.746712 0,-3.746649 0,-3.746712 -3.746712,0 -3.746647,0 -3.746712,0 z"
     id="path93"
     inkscape:connector-curvature="0" />
  <path
     d="m 79.10516,66.086349 0,3.746646 -3.746647,0 -3.746712,0 -3.746647,0 0,3.746713 3.746647,0 3.746712,0 3.746647,0 3.746712,0 3.746714,0 3.746646,0 0,-3.746713 -3.746646,0 0,-3.746646 -3.746714,0 -3.746712,0 z"
     id="path95"
     inkscape:connector-curvature="0" />
  <path
     d="m 75.358513,47.35292 0,3.746645 -3.746712,0 0,3.746713 0,3.746646 0,3.746712 0,3.746713 0,3.746646 3.746712,0 3.746647,0 0,-3.746646 0,-3.746713 0,-3.746712 0,-3.746646 0,-3.746713 0,-3.746645 -3.746647,0 z"
     id="path97"
     inkscape:connector-curvature="0" />
  <path
     d="m 82.851872,77.326354 0,3.746713 3.746714,0 3.746646,0 3.746716,0 0,3.746712 3.746638,0 3.746714,0 3.74671,0 0,3.746649 3.74665,0 0,-3.746649 3.74671,0 0,-3.746712 3.74664,0 0,-3.746713 -3.74664,0 -3.74671,0 -3.74665,0 -3.74671,0 -3.746714,0 -3.746638,0 -3.746716,0 -3.746646,0 -3.746714,0 z"
     id="path99"
     inkscape:connector-curvature="0" />
  <path
     d="m 82.851872,81.073067 0,3.746712 0,3.746649 0,3.746712 0,3.746646 3.746714,0 3.746646,0 3.746716,0 3.746638,0 0,3.746706 3.746714,0 3.74671,0 0,-3.746706 -3.74671,0 0,-3.746646 -3.746714,0 -3.746638,0 0,-3.746712 0,-3.746649 0,-3.746712 -3.746716,0 -3.746646,0 -3.746714,0 z"
     id="path101"
     inkscape:connector-curvature="0" />
  <path
     d="m 94.091948,84.819779 0,3.746649 0,3.746712 3.746638,0 3.746714,0 0,3.746646 3.74671,0 3.74665,0 0,-3.746646 0,-3.746712 -3.74665,0 0,-3.746649 -3.74671,0 -3.746714,0 -3.746638,0 z"
     id="path103"
     inkscape:connector-curvature="0" />
  <path
     d="m 94.091948,58.592924 0,3.746712 0,3.746713 -3.746716,0 0,3.746646 3.746716,0 3.746638,0 0,-3.746646 0,-3.746713 3.746714,0 0,-3.746712 -3.746714,0 -3.746638,0 z"
     id="path105"
     inkscape:connector-curvature="0" />
  <path
     d="m 0.42479313,24.871174 0,3.746713 0,3.746647 3.74671317,0 3.7466455,0 0,-3.746647 -3.7466455,0 0,-3.746713 -3.74671317,0 z"
     id="path107"
     inkscape:connector-curvature="0" />
</svg>
