<?xml version="1.0" encoding="UTF-8" standalone="no"?>
<!-- Created with Inkscape (http://www.inkscape.org/) -->

<svg
   xmlns:dc="http://purl.org/dc/elements/1.1/"
   xmlns:cc="http://creativecommons.org/ns#"
   xmlns:rdf="http://www.w3.org/1999/02/22-rdf-syntax-ns#"
   xmlns:svg="http://www.w3.org/2000/svg"
   xmlns="http://www.w3.org/2000/svg"
   xmlns:sodipodi="http://sodipodi.sourceforge.net/DTD/sodipodi-0.dtd"
   xmlns:inkscape="http://www.inkscape.org/namespaces/inkscape"
   width="1272"
   height="1002"
   id="svg2"
   version="1.1"
   inkscape:version="0.48.2 r9819"
   sodipodi:docname="Cartogram—2012_Electoral_Vote.svg">
  <defs
     id="defs4" />
  <sodipodi:namedview
     id="base"
     pagecolor="#ffffff"
     bordercolor="#666666"
     borderopacity="1.0"
     inkscape:pageopacity="0.0"
     inkscape:pageshadow="2"
     inkscape:zoom="0.70710678"
     inkscape:cx="775.12725"
     inkscape:cy="441.21482"
     inkscape:document-units="px"
     inkscape:current-layer="layer2"
     showgrid="false"
     inkscape:window-width="1543"
     inkscape:window-height="1163"
     inkscape:window-x="0"
     inkscape:window-y="0"
     inkscape:window-maximized="1"
     fit-margin-top="20"
     fit-margin-right="20"
     fit-margin-bottom="20"
     fit-margin-left="50">
    <inkscape:grid
       type="xygrid"
       id="grid2996"
       empspacing="30"
       visible="true"
       enabled="true"
       snapvisiblegridlinesonly="true"
       empcolor="#ffffff"
       empopacity="0.25098039"
       color="#0062ff"
       opacity="0.1254902"
       originx="-999px"
       originy="-308.98718px" />
  </sodipodi:namedview>
  <metadata
     id="metadata7">
    <rdf:RDF>
      <cc:Work
         rdf:about="">
        <dc:format>image/svg+xml</dc:format>
        <dc:type
           rdf:resource="http://purl.org/dc/dcmitype/StillImage" />
        <dc:title />
      </cc:Work>
    </rdf:RDF>
  </metadata>
  <g
     inkscape:groupmode="layer"
     id="layer2"
     inkscape:label="blocks"
     style="display:inline">
    <g
       id="states"
       style="stroke-width:2;stroke-miterlimit:4;stroke-dasharray:none"
       transform="translate(-1018.2338,257.38687)">
      <g
         id="blues"
         style="stroke-width:2;stroke-miterlimit:4;stroke-dasharray:none">
        <path
           style="fill:#0049ff;fill-opacity:1;fill-rule:nonzero;stroke:#ffffff;stroke-width:2;stroke-linecap:round;stroke-linejoin:miter;stroke-miterlimit:4;stroke-opacity:1;stroke-dasharray:none"
           d="m 1050,212.375 0,30 0,30 0,30 0,30 30,0 0,-30 30,0 0,30 0,30 0,30 -30,0 0,-30 -30,0 0,30 0,30 0,30 30,0 0,30 30,0 0,30 30,0 0,30 0,30 30,0 0,30 30,0 30,0 30,0 30,0 0,-30 0,-30 0,-30 0,-30 0,-30 -30,0 -30,0 0,-30 -30,0 0,-30 -30,0 0,-30 0,-30 0,-30 0,-30 0,-30 -30,0 -30,0 -30,0 0,-30 -30,0 z"
           id="rect3808"
           inkscape:connector-curvature="0" />
        <path
           style="fill:#0049ff;fill-opacity:1;fill-rule:nonzero;stroke:#ffffff;stroke-width:2;stroke-linejoin:miter;stroke-miterlimit:4;stroke-opacity:1;stroke-dasharray:none"
           d="m 1050,182.375 0,30 30,0 0,30 30,0 30,0 30,0 0,-30 0,-30 -30,0 -30,0 -30,0 -30,0 z"
           id="rect3808-29"
           inkscape:connector-curvature="0" />
        <path
           style="fill:#0049ff;fill-opacity:1;fill-rule:nonzero;stroke:#ffffff;stroke-width:2;stroke-linejoin:miter;stroke-miterlimit:4;stroke-opacity:1;stroke-dasharray:none"
           d="m 1080,92.375 0,30 -30,0 0,30 0,30 30,0 30,0 30,0 30,0 30,0 0,-30 -30,0 0,-30 0,-30 -30,0 -30,0 -30,0 z"
           id="rect3808-64"
           inkscape:connector-curvature="0" />
        <path
           style="fill:#0049ff;fill-opacity:1;fill-rule:nonzero;stroke:#ffffff;stroke-width:2;stroke-linejoin:miter;stroke-miterlimit:4;stroke-opacity:1;stroke-dasharray:none"
           d="m 1170,242.375 0,30 0,30 0,30 0,30 0,30 30,0 0,-30 0,-30 0,-30 0,-30 30,0 0,-30 -30,0 -30,0 z"
           id="rect3808-64-1-9"
           inkscape:connector-curvature="0" />
        <path
           style="fill:#0049ff;fill-opacity:1;fill-rule:nonzero;stroke:#ffffff;stroke-linecap:round;stroke-linejoin:miter;stroke-opacity:1"
           d="m 1260,242.36218 90,0 0,90 -90,0 z"
           id="rect4847"
           inkscape:connector-curvature="0" />
        <path
           style="fill:#0049ff;fill-opacity:1;fill-rule:nonzero;stroke:#ffffff;stroke-width:2;stroke-linecap:round;stroke-linejoin:miter;stroke-miterlimit:4;stroke-opacity:1;stroke-dasharray:none"
           d="m 1320,332.375 0,30 -30,0 0,30 0,30 30,0 30,0 0,-30 0,-30 0,-30 -30,0 z"
           id="rect4851-7"
           inkscape:connector-curvature="0" />
        <path
           style="fill:#0049ff;fill-opacity:1;fill-rule:nonzero;stroke:#ffffff;stroke-width:2;stroke-linecap:round;stroke-linejoin:miter;stroke-miterlimit:4;stroke-opacity:1;stroke-dasharray:none"
           d="m 1470,92.375 0,30 0,30 -30,0 0,30 30,0 30,0 30,0 0,-30 0,-30 -30,0 0,-30 -30,0 z"
           id="rect5428-4"
           inkscape:connector-curvature="0" />
        <path
           style="fill:#0049ff;fill-opacity:1;fill-rule:nonzero;stroke:#ffffff;stroke-width:2;stroke-linecap:round;stroke-linejoin:miter;stroke-miterlimit:4;stroke-opacity:1;stroke-dasharray:none"
           d="m 1470,-87.625 0,30 0,30 0,30 0,30 0,30 0,30 30,0 0,30 30,0 0,-30 0,-30 0,-30 -30,0 0,-30 0,-30 0,-30 30,0 0,-30 -30,0 -30,0 z"
           id="rect5428-4-9"
           inkscape:connector-curvature="0" />
        <path
           style="fill:#0049ff;fill-opacity:1;fill-rule:nonzero;stroke:#ffffff;stroke-width:2;stroke-linecap:round;stroke-linejoin:miter;stroke-miterlimit:4;stroke-opacity:1;stroke-dasharray:none"
           d="m 1500,-57.625 0,30 0,30 0,30 30,0 0,30 30,0 30,0 0,-30 0,-30 0,-30 0,-30 -30,0 0,30 -30,0 0,-30 -30,0 z"
           id="rect5428-4-5"
           inkscape:connector-curvature="0" />
        <path
           style="fill:#0049ff;fill-opacity:1;fill-rule:nonzero;stroke:#ffffff;stroke-width:2;stroke-linecap:round;stroke-linejoin:miter;stroke-miterlimit:4;stroke-opacity:1;stroke-dasharray:none"
           d="m 1530,62.375 0,30 0,30 0,30 0,30 0,30 0,30 30,0 0,30 0,30 30,0 0,-30 30,0 0,-30 0,-30 0,-30 0,-30 0,-30 0,-30 -30,0 0,-30 -30,0 -30,0 z"
           id="rect5428-4-8"
           inkscape:connector-curvature="0" />
        <path
           style="fill:#0049ff;fill-opacity:1;fill-rule:nonzero;stroke:#ffffff;stroke-width:2;stroke-linecap:round;stroke-linejoin:miter;stroke-miterlimit:4;stroke-opacity:1;stroke-dasharray:none"
           d="m 1590,-87.625 0,30 30,0 30,0 0,-30 -30,0 -30,0 z m 60,30 0,30 0,30 0,30 0,30 0,30 30,0 30,0 30,0 0,-30 30,0 0,-30 0,-30 -30,0 0,30 -30,0 0,-30 0,-30 0,-30 -30,0 -30,0 z"
           id="rect5428-4-3"
           inkscape:connector-curvature="0" />
        <path
           style="fill:#0049ff;fill-opacity:1;fill-rule:nonzero;stroke:#ffffff;stroke-width:2;stroke-linecap:round;stroke-linejoin:miter;stroke-miterlimit:4;stroke-opacity:1;stroke-dasharray:none"
           d="m 1680,92.375 0,30 0,30 0,30 0,30 0,30 30,0 30,0 0,30 30,0 0,-30 30,0 0,-30 0,-30 0,-30 0,-30 -30,0 0,30 -30,0 0,-30 0,-30 -30,0 -30,0 z"
           id="rect5428-4-2"
           inkscape:connector-curvature="0" />
        <path
           style="fill:#0049ff;fill-opacity:1;fill-rule:nonzero;stroke:#ffffff;stroke-width:2;stroke-linecap:round;stroke-linejoin:miter;stroke-miterlimit:4;stroke-opacity:1;stroke-dasharray:none"
           d="m 1830,242.375 0,30 -30,0 -30,0 0,30 -30,0 0,30 30,0 30,0 30,0 30,0 30,0 30,0 30,0 30,0 0,-30 -30,0 -30,0 -30,0 0,-30 -30,0 0,-30 -30,0 z"
           id="rect5428-4-38"
           inkscape:connector-curvature="0" />
        <path
           style="fill:#0049ff;fill-opacity:1;fill-rule:nonzero;stroke:#ffffff;stroke-width:2;stroke-linecap:round;stroke-linejoin:miter;stroke-miterlimit:4;stroke-opacity:1;stroke-dasharray:none"
           d="m 1650,452.375 0,30 0,30 30,0 30,0 30,0 30,0 0,30 0,30 0,30 0,30 30,0 0,30 30,0 0,30 30,0 0,-30 30,0 0,-30 0,-30 0,-30 0,-30 0,-30 -30,0 -30,0 0,-30 -30,0 -30,0 -30,0 -30,0 0,-30 -30,0 -30,0 z m 180,240 -30,0 0,30 30,0 0,-30 z"
           id="rect5428-4-1"
           inkscape:connector-curvature="0" />
        <path
           style="fill:#0049ff;fill-opacity:1;fill-rule:nonzero;stroke:#ffffff;stroke-width:2;stroke-linecap:round;stroke-linejoin:miter;stroke-miterlimit:4;stroke-opacity:1;stroke-dasharray:none"
           d="m 1860,242.375 0,30 30,0 0,30 30,0 0,-30 0,-30 -30,0 -30,0 z"
           id="rect5428-4-88"
           inkscape:connector-curvature="0" />
        <path
           style="fill:#0049ff;fill-opacity:1;fill-rule:nonzero;stroke:#ffffff;stroke-width:2;stroke-linecap:round;stroke-linejoin:miter;stroke-miterlimit:4;stroke-opacity:1;stroke-dasharray:none"
           d="m 1830,212.375 0,30 30,0 30,0 30,0 0,30 0,30 30,0 30,0 30,0 0,-30 -30,0 0,-30 0,-30 -30,0 -30,0 -30,0 -30,0 -30,0 z"
           id="rect5428-4-89"
           inkscape:connector-curvature="0" />
        <path
           style="fill:#0049ff;fill-opacity:1;fill-rule:nonzero;stroke:#ffffff;stroke-width:2;stroke-linecap:round;stroke-linejoin:miter;stroke-miterlimit:4;stroke-opacity:1;stroke-dasharray:none"
           d="m 1980,182.375 0,30 0,30 0,30 30,0 0,-30 0,-30 0,-30 -30,0 z"
           id="rect5428-4-0"
           inkscape:connector-curvature="0" />
        <path
           style="fill:#0049ff;fill-opacity:1;fill-rule:nonzero;stroke:#ffffff;stroke-width:2;stroke-linecap:round;stroke-linejoin:miter;stroke-miterlimit:4;stroke-opacity:1;stroke-dasharray:none"
           d="m 1860,62.375 0,30 -30,0 0,30 -30,0 0,30 0,30 30,0 30,0 0,30 30,0 30,0 30,0 30,0 0,-30 -30,0 0,-30 0,-30 0,-30 -30,0 0,-30 -30,0 -30,0 z"
           id="rect5428-4-7"
           inkscape:connector-curvature="0" />
        <path
           style="fill:#0049ff;fill-opacity:1;fill-rule:nonzero;stroke:#ffffff;stroke-width:2;stroke-linecap:round;stroke-linejoin:miter;stroke-miterlimit:4;stroke-opacity:1;stroke-dasharray:none"
           d="m 1950,92.375 0,30 0,30 0,30 30,0 30,0 0,30 0,30 30,0 0,-30 30,0 0,-30 0,-30 0,-30 -30,0 0,-30 -30,0 -30,0 -30,0 z"
           id="rect5428-4-26"
           inkscape:connector-curvature="0" />
        <path
           style="fill:#0049ff;fill-opacity:1;fill-rule:nonzero;stroke:#ffffff;stroke-width:2;stroke-linecap:round;stroke-linejoin:miter;stroke-miterlimit:4;stroke-opacity:1;stroke-dasharray:none"
           d="m 1980,-117.625 0,30 -30,0 0,30 0,30 -30,0 -30,0 -30,0 0,30 30,0 0,30 -30,0 0,30 30,0 30,0 0,30 30,0 30,0 30,0 0,-30 0,-30 30,0 0,-30 0,-30 0,-30 0,-30 0,-30 -30,0 -30,0 z m 60,150 0,30 30,0 30,0 0,-30 -30,0 -30,0 z"
           id="rect5428-4-29"
           inkscape:connector-curvature="0" />
        <path
           style="fill:#0049ff;fill-opacity:1;fill-rule:nonzero;stroke:#ffffff;stroke-width:2;stroke-linecap:round;stroke-linejoin:miter;stroke-miterlimit:4;stroke-opacity:1;stroke-dasharray:none"
           d="m 2040,-57.625 0,30 0,30 0,30 30,0 0,-30 30,0 30,0 0,-30 0,-30 -30,0 -30,0 -30,0 z"
           id="rect5428-4-72"
           inkscape:connector-curvature="0" />
        <path
           style="fill:#0049ff;fill-opacity:1;fill-rule:nonzero;stroke:#ffffff;stroke-width:2;stroke-linecap:round;stroke-linejoin:miter;stroke-miterlimit:4;stroke-opacity:1;stroke-dasharray:none"
           d="m 2130,-57.625 0,30 0,30 30,0 30,0 0,-30 0,-30 -30,0 -30,0 z"
           id="rect5428-4-57"
           inkscape:connector-curvature="0" />
        <path
           style="fill:#0049ff;fill-opacity:1;fill-rule:nonzero;stroke:#ffffff;stroke-width:2;stroke-linecap:round;stroke-linejoin:miter;stroke-miterlimit:4;stroke-opacity:1;stroke-dasharray:none"
           d="m 2070,-117.625 0,30 -30,0 0,30 30,0 30,0 30,0 30,0 30,0 30,0 30,0 0,-30 0,-30 -30,0 0,30 -30,0 -30,0 0,-30 -30,0 -30,0 -30,0 z"
           id="rect5428-4-33"
           inkscape:connector-curvature="0" />
        <path
           style="fill:#0049ff;fill-opacity:1;fill-rule:nonzero;stroke:#ffffff;stroke-width:2;stroke-linecap:round;stroke-linejoin:miter;stroke-miterlimit:4;stroke-opacity:1;stroke-dasharray:none"
           d="m 2040,-147.625 0,30 0,30 30,0 0,-30 30,0 0,-30 -30,0 -30,0 z"
           id="rect5428-4-95"
           inkscape:connector-curvature="0" />
        <path
           style="fill:#0049ff;fill-opacity:1;fill-rule:nonzero;stroke:#ffffff;stroke-width:2;stroke-linecap:round;stroke-linejoin:miter;stroke-miterlimit:4;stroke-opacity:1;stroke-dasharray:none"
           d="m 2100,-177.625 0,30 0,30 30,0 30,0 0,-30 0,-30 -30,0 -30,0 z"
           id="rect5428-4-35"
           inkscape:connector-curvature="0" />
        <path
           style="fill:#0049ff;fill-opacity:1;fill-rule:nonzero;stroke:#ffffff;stroke-width:2;stroke-linecap:round;stroke-linejoin:miter;stroke-miterlimit:4;stroke-opacity:1;stroke-dasharray:none"
           d="m 2130,-237.625 0,30 0,30 30,0 30,0 0,-30 0,-30 -30,0 -30,0 z"
           id="rect5428-4-293"
           inkscape:connector-curvature="0" />
        <path
           style="fill:#0049ff;fill-opacity:1;fill-rule:nonzero;stroke:#ffffff;stroke-width:2;stroke-linecap:round;stroke-linejoin:miter;stroke-miterlimit:4;stroke-opacity:1;stroke-dasharray:none"
           d="m 1050,632.36218 0,30 30,0 0,-30 -30,0 z m 30,30 0,30 30,0 0,-30 -30,0 z m 30,30 0,30 30,0 30,0 0,-30 -30,0 -30,0 z"
           id="rect5428-4-03"
           inkscape:connector-curvature="0" />
      </g>
      <g
         id="reds"
         style="stroke-width:2;stroke-miterlimit:4;stroke-dasharray:none">
        <path
           style="fill:#ff0044;fill-opacity:1;fill-rule:nonzero;stroke:#ffffff;stroke-width:2;stroke-linejoin:miter;stroke-miterlimit:4;stroke-opacity:1;stroke-dasharray:none"
           d="m 1320,182.375 0,30 30,0 30,0 30,0 0,-30 -30,0 -30,0 -30,0 z"
           id="rect3808-64-1-9-1-8-6"
           inkscape:connector-curvature="0" />
        <path
           style="fill:#ff0044;fill-opacity:1;fill-rule:nonzero;stroke:#ffffff;stroke-width:2;stroke-linejoin:miter;stroke-miterlimit:4;stroke-opacity:1;stroke-dasharray:none"
           d="m 1170,182.375 0,30 0,30 30,0 30,0 0,-30 0,-30 -30,0 -30,0 z"
           id="rect3808-64-1"
           inkscape:connector-curvature="0" />
        <path
           style="fill:#ff0044;fill-opacity:1;fill-rule:nonzero;stroke:#ffffff;stroke-width:2;stroke-linejoin:miter;stroke-miterlimit:4;stroke-opacity:1;stroke-dasharray:none"
           d="m 1230,242.375 0,30 -30,0 0,30 0,30 0,30 30,0 0,-30 30,0 0,-30 0,-30 0,-30 -30,0 z"
           id="rect3808-64-1-9-1"
           inkscape:connector-curvature="0" />
        <path
           style="fill:#ff0044;fill-opacity:1;fill-rule:nonzero;stroke:#ffffff;stroke-width:2;stroke-linejoin:miter;stroke-miterlimit:4;stroke-opacity:1;stroke-dasharray:none"
           d="m 1230,332.375 0,30 -30,0 0,30 0,30 30,0 0,30 30,0 30,0 0,-30 0,-30 0,-30 30,0 0,-30 -30,0 -30,0 -30,0 z"
           id="rect3808-64-1-9-1-1"
           inkscape:connector-curvature="0" />
        <path
           style="fill:#ff0044;fill-opacity:1;fill-rule:nonzero;stroke:#ffffff;stroke-width:2;stroke-linejoin:miter;stroke-miterlimit:4;stroke-opacity:1;stroke-dasharray:none"
           d="m 1230,182.375 0,30 30,0 30,0 30,0 0,-30 -30,0 -30,0 -30,0 z"
           id="rect3808-64-1-9-1-11"
           inkscape:connector-curvature="0" />
        <path
           style="fill:#ff0044;fill-opacity:1;fill-rule:nonzero;stroke:#ffffff;stroke-width:2;stroke-linejoin:miter;stroke-miterlimit:4;stroke-opacity:1;stroke-dasharray:none"
           d="m 1230,212.375 0,30 30,0 30,0 30,0 0,-30 -30,0 -30,0 -30,0 z"
           id="rect3808-64-1-9-1-17"
           inkscape:connector-curvature="0" />
        <path
           inkscape:connector-curvature="0"
           style="fill:#ff0044;fill-opacity:1;fill-rule:nonzero;stroke:#ffffff;stroke-width:2;stroke-linejoin:miter;stroke-miterlimit:4;stroke-opacity:1;stroke-dasharray:none"
           d="m 1320,212.375 0,30 30,0 30,0 30,0 0,-30 -30,0 -30,0 -30,0 z"
           id="rect3808-64-1-9-1-8-6-2" />
        <path
           style="fill:#ff0044;fill-opacity:1;fill-rule:nonzero;stroke:#ffffff;stroke-linecap:round;stroke-linejoin:miter;stroke-opacity:1"
           d="m 1350,242.36218 90,0 0,60 -90,0 z"
           id="rect4849"
           inkscape:connector-curvature="0" />
        <path
           style="fill:#ff0044;fill-opacity:1;fill-rule:nonzero;stroke:#ffffff;stroke-width:2;stroke-linecap:round;stroke-linejoin:miter;stroke-miterlimit:4;stroke-opacity:1;stroke-dasharray:none"
           d="m 1440,272.375 0,30 -30,0 -30,0 -30,0 0,30 30,0 30,0 0,30 30,0 30,0 0,-30 0,-30 0,-30 -30,0 z"
           id="rect4851"
           inkscape:connector-curvature="0" />
        <path
           style="fill:#ff0044;fill-opacity:1;fill-rule:nonzero;stroke:#ffffff;stroke-width:2;stroke-linecap:round;stroke-linejoin:miter;stroke-miterlimit:4;stroke-opacity:1;stroke-dasharray:none"
           d="m 1350,332.375 0,30 0,30 0,30 -30,0 -30,0 0,30 30,0 0,30 0,30 30,0 0,-30 30,0 0,30 0,30 0,30 0,30 30,0 0,-30 30,0 30,0 0,-30 0,-30 30,0 0,-30 30,0 0,-30 -30,0 0,-30 0,-30 0,-30 -30,0 -30,0 -30,0 0,-30 -30,0 -30,0 z"
           id="rect4851-4"
           inkscape:connector-curvature="0" />
        <path
           style="fill:#ff0044;fill-opacity:1;fill-rule:nonzero;stroke:#ffffff;stroke-width:2;stroke-linecap:round;stroke-linejoin:miter;stroke-miterlimit:4;stroke-opacity:1;stroke-dasharray:none"
           d="m 1410,182.375 0,30 0,30 30,0 0,30 30,0 0,-30 0,-30 0,-30 -30,0 -30,0 z"
           id="rect4851-9"
           inkscape:connector-curvature="0" />
        <path
           style="fill:#ff0044;fill-opacity:1;fill-rule:nonzero;stroke:#ffffff;stroke-width:2;stroke-linecap:round;stroke-linejoin:miter;stroke-miterlimit:4;stroke-opacity:1;stroke-dasharray:none"
           d="m 1470,182.375 0,30 0,30 0,30 0,30 30,0 30,0 30,0 0,-30 0,-30 -30,0 0,-30 0,-30 -30,0 -30,0 z"
           id="rect4851-5"
           inkscape:connector-curvature="0" />
        <path
           style="fill:#ff0044;fill-opacity:1;fill-rule:nonzero;stroke:#ffffff;stroke-width:2;stroke-linecap:round;stroke-linejoin:miter;stroke-miterlimit:4;stroke-opacity:1;stroke-dasharray:none"
           d="m 1470,302.375 0,30 0,30 30,0 30,0 30,0 0,-30 0,-30 -30,0 -30,0 -30,0 z"
           id="rect4851-90"
           inkscape:connector-curvature="0" />
        <path
           style="fill:#ff0044;fill-opacity:1;fill-rule:nonzero;stroke:#ffffff;stroke-width:2;stroke-linecap:round;stroke-linejoin:miter;stroke-miterlimit:4;stroke-opacity:1;stroke-dasharray:none"
           d="m 1500,362.375 0,30 0,30 0,30 30,0 0,30 30,0 30,0 0,-30 0,-30 -30,0 -30,0 0,-30 30,0 0,-30 -30,0 -30,0 z"
           id="rect4851-94"
           inkscape:connector-curvature="0" />
        <path
           style="fill:#ff0044;fill-opacity:1;fill-rule:nonzero;stroke:#ffffff;stroke-width:2;stroke-linecap:round;stroke-linejoin:miter;stroke-miterlimit:4;stroke-opacity:1;stroke-dasharray:none"
           d="m 1560,362.375 0,30 -30,0 0,30 30,0 30,0 0,30 30,0 0,-30 0,-30 0,-30 -30,0 -30,0 z"
           id="rect5428"
           inkscape:connector-curvature="0" />
        <path
           style="fill:#ff0044;fill-opacity:1;fill-rule:nonzero;stroke:#ffffff;stroke-width:2;stroke-linecap:round;stroke-linejoin:miter;stroke-miterlimit:4;stroke-opacity:1;stroke-dasharray:none"
           d="m 1560,302.375 0,30 0,30 30,0 30,0 30,0 30,0 30,0 0,-30 30,0 0,-30 -30,0 -30,0 -30,0 -30,0 -30,0 -30,0 z"
           id="rect5428-3"
           inkscape:connector-curvature="0" />
        <path
           style="fill:#ff0044;fill-opacity:1;fill-rule:nonzero;stroke:#ffffff;stroke-width:2;stroke-linecap:round;stroke-linejoin:miter;stroke-miterlimit:4;stroke-opacity:1;stroke-dasharray:none"
           d="m 1620,362.375 0,30 0,30 0,30 30,0 30,0 30,0 0,-30 0,-30 0,-30 -30,0 -30,0 -30,0 z"
           id="rect5428-0"
           inkscape:connector-curvature="0" />
        <path
           style="fill:#ff0044;fill-opacity:1;fill-rule:nonzero;stroke:#ffffff;stroke-width:2;stroke-linecap:round;stroke-linejoin:miter;stroke-miterlimit:4;stroke-opacity:1;stroke-dasharray:none"
           d="m 1680,242.375 0,30 -30,0 -30,0 -30,0 0,30 30,0 30,0 30,0 30,0 30,0 30,0 0,-30 -30,0 0,-30 -30,0 -30,0 z"
           id="rect5428-6"
           inkscape:connector-curvature="0" />
        <path
           style="fill:#ff0044;fill-opacity:1;fill-rule:nonzero;stroke:#ffffff;stroke-width:2;stroke-linecap:round;stroke-linejoin:miter;stroke-miterlimit:4;stroke-opacity:1;stroke-dasharray:none"
           d="m 1650,92.375 0,30 -30,0 0,30 0,30 0,30 0,30 0,30 30,0 30,0 0,-30 0,-30 0,-30 0,-30 0,-30 0,-30 -30,0 z"
           id="rect5428-8"
           inkscape:connector-curvature="0" />
        <path
           style="fill:#ff0044;fill-opacity:1;fill-rule:nonzero;stroke:#ffffff;stroke-width:2;stroke-linecap:round;stroke-linejoin:miter;stroke-miterlimit:4;stroke-opacity:1;stroke-dasharray:none"
           d="m 1710,332.375 0,30 30,0 30,0 30,0 0,30 30,0 30,0 30,0 0,30 30,0 0,-30 30,0 0,-30 30,0 0,-30 -30,0 -30,0 -30,0 -30,0 -30,0 -30,0 -30,0 -30,0 -30,0 z"
           id="rect5428-38"
           inkscape:connector-curvature="0" />
        <path
           style="fill:#ff0044;fill-opacity:1;fill-rule:nonzero;stroke:#ffffff;stroke-width:2;stroke-linecap:round;stroke-linejoin:miter;stroke-miterlimit:4;stroke-opacity:1;stroke-dasharray:none"
           d="m 1710,362.375 0,30 0,30 0,30 0,30 30,0 30,0 30,0 30,0 0,30 30,0 30,0 0,-30 -30,0 0,-30 -30,0 -30,0 0,-30 0,-30 0,-30 -30,0 -30,0 -30,0 z"
           id="rect5428-1"
           inkscape:connector-curvature="0" />
        <path
           style="fill:#ff0044;fill-opacity:1;fill-rule:nonzero;stroke:#ffffff;stroke-width:2;stroke-linecap:round;stroke-linejoin:miter;stroke-miterlimit:4;stroke-opacity:1;stroke-dasharray:none"
           d="m 1800,392.375 0,30 0,30 30,0 30,0 0,30 30,0 30,0 0,-30 0,-30 -30,0 0,-30 -30,0 -30,0 -30,0 z"
           id="rect5428-2"
           inkscape:connector-curvature="0" />
        <path
           style="fill:#ff0044;fill-opacity:1;fill-rule:nonzero;stroke:#ffffff;stroke-width:2;stroke-linecap:round;stroke-linejoin:miter;stroke-miterlimit:4;stroke-opacity:1;stroke-dasharray:none"
           d="m 1800,182.375 0,30 0,30 -30,0 0,30 30,0 30,0 0,-30 0,-30 30,0 0,-30 -30,0 -30,0 z"
           id="rect5428-9"
           inkscape:connector-curvature="0" />
        <path
           style="fill:#ff0044;fill-opacity:1;fill-rule:nonzero;stroke:#ffffff;stroke-width:2;stroke-linecap:round;stroke-linejoin:miter;stroke-miterlimit:4;stroke-opacity:1;stroke-dasharray:none"
           d="m 1050,-89.637817 0,30 0,30 30,0 30,0 0,-30 -30,0 0,-30 -30,0 z"
           id="rect5428-4-59"
           inkscape:connector-curvature="0" />
      </g>
    </g>
  </g>
  <g
     inkscape:groupmode="layer"
     id="layer3"
     inkscape:label="pi"
     style="display:inline">
    <path
       transform="matrix(0.85714287,0,0,0.85714286,-836.14289,473.24817)"
       style="fill:#ff0044;fill-opacity:1;fill-rule:nonzero;stroke:none;display:inline"
       d="m 2365.4709,269.52356 c 42.9891,38.92001 46.2877,105.32045 7.3677,148.30953 -19.9052,21.98632 -48.1803,34.52909 -77.8386,34.52909 l 0,-105 z"
       id="red-slice"
       inkscape:connector-curvature="0" />
    <path
       transform="matrix(0.85714287,0,0,0.85714286,-836.14289,473.24817)"
       style="fill:#0049ff;fill-opacity:1;fill-rule:nonzero;stroke:none;display:inline"
       d="m 2295,452.36218 c -57.9899,0 -105,-47.0101 -105,-104.99999 0,-57.9899 47.0101,-105.00001 105,-105.00001 26.0461,0 51.1626,9.6806 70.4711,27.16154 L 2295,347.36218 z"
       id="blue-slice"
       inkscape:connector-curvature="0" />
  </g>
</svg>
