<?xml version="1.0"?>
<svg xmlns="http://www.w3c.org/2000/svg">
    <g id="states">
        <g id="blues">
            <path d="m 0.4,62.3 0,3.7 0,3.7 0,3.7 0,3.7 3.7,0 0,-3.7 3.7,0 0,3.7 0,3.7 0,3.7 -3.7,0 0,-3.7 -3.7,0 0,3.7 0,3.7 0,3.7 3.7,0 0,3.7 3.7,0 0,3.7 3.7,0 0,3.7 0,3.7 3.7,0 0,3.7 3.7,0 3.7,0 3.7,0 3.7,0 0,-3.7 0,-3.7 0,-3.7 0,-3.7 0,-3.7 -3.7,0 -3.7,0 0,-3.7 -3.7,0 0,-3.7 -3.7,0 0,-3.7 0,-3.7 0,-3.7 0,-3.7 0,-3.7 -3.7,0 -3.7,0 -3.7,0 0,-3.7 -3.7,0 z"/>
            <path d="m 0.4,58.6 0,3.7 3.7,0 0,3.7 3.7,0 3.7,0 3.7,0 0,-3.7 0,-3.7 -3.7,0 -3.7,0 -3.7,0 -3.7,0 z"/>
            <path d="m 4.2,47.4 0,3.7 -3.7,0 0,3.7 0,3.7 3.7,0 3.7,0 3.7,0 3.7,0 3.7,0 0,-3.7 -3.7,0 0,-3.7 0,-3.7 -3.7,0 -3.7,0 -3.7,0 z"/>
            <path d="m 15.4,66.1 0,3.7 0,3.7 0,3.7 0,3.7 0,3.7 3.7,0 0,-3.7 0,-3.7 0,-3.7 0,-3.7 3.7,0 0,-3.7 -3.7,0 -3.7,0 z"/>
            <path d="m 26.7,66.1 11.2,0 0,11.2 -11.2,0 z"/>
            <path d="m 34.1,77.3 0,3.7 -3.7,0 0,3.7 0,3.7 3.7,0 3.7,0 0,-3.7 0,-3.7 0,-3.7 -3.7,0 z"/>
            <path d="m 52.9,47.4 0,3.7 0,3.7 -3.7,0 0,3.7 3.7,0 3.7,0 3.7,0 0,-3.7 0,-3.7 -3.7,0 0,-3.7 -3.7,0 z"/>
            <path d="m 52.9,24.9 0,3.7 0,3.7 0,3.7 0,3.7 0,3.7 0,3.7 3.7,0 0,3.7 3.7,0 0,-3.7 0,-3.7 0,-3.7 -3.7,0 0,-3.7 0,-3.7 0,-3.7 3.7,0 0,-3.7 -3.7,0 -3.7,0 z"/>
            <path d="m 56.6,28.6 0,3.7 0,3.7 0,3.7 3.7,0 0,3.7 3.7,0 3.7,0 0,-3.7 0,-3.7 0,-3.7 0,-3.7 -3.7,0 0,3.7 -3.7,0 0,-3.7 -3.7,0 z"/>
            <path d="m 60.4,43.6 0,3.7 0,3.7 0,3.7 0,3.7 0,3.7 0,3.7 3.7,0 0,3.7 0,3.7 3.7,0 0,-3.7 3.7,0 0,-3.7 0,-3.7 0,-3.7 0,-3.7 0,-3.7 0,-3.7 -3.7,0 0,-3.7 -3.7,0 -3.7,0 z"/>
            <path d="m 67.9,24.9 0,3.7 3.7,0 3.7,0 0,-3.7 -3.7,0 -3.7,0 z m 7.5,3.7 0,3.7 0,3.7 0,3.7 0,3.7 0,3.7 3.7,0 3.7,0 3.7,0 0,-3.7 3.7,0 0,-3.7 0,-3.7 -3.7,0 0,3.7 -3.7,0 0,-3.7 0,-3.7 0,-3.7 -3.7,0 -3.7,0 z"/>
            <path d="m 79.1,47.4 0,3.7 0,3.7 0,3.7 0,3.7 0,3.7 3.7,0 3.7,0 0,3.7 3.7,0 0,-3.7 3.7,0 0,-3.7 0,-3.7 0,-3.7 0,-3.7 -3.7,0 0,3.7 -3.7,0 0,-3.7 0,-3.7 -3.7,0 -3.7,0 z"/>
            <path d="m 97.8,66.1 0,3.7 -3.7,0 -3.7,0 0,3.7 -3.7,0 0,3.7 3.7,0 3.7,0 3.7,0 3.7,0 3.7,0 3.7,0 3.7,0 3.7,0 0,-3.7 -3.7,0 -3.7,0 -3.7,0 0,-3.7 -3.7,0 0,-3.7 -3.7,0 z"/>
            <path d="m 75.4,92.3 0,3.7 0,3.7 3.7,0 3.7,0 3.7,0 3.7,0 0,3.7 0,3.7 0,3.7 0,3.7 3.7,0 0,3.7 3.7,0 0,3.7 3.7,0 0,-3.7 3.7,0 0,-3.7 0,-3.7 0,-3.7 0,-3.7 0,-3.7 -3.7,0 -3.7,0 0,-3.7 -3.7,0 -3.7,0 -3.7,0 -3.7,0 0,-3.7 -3.7,0 -3.7,0 z m 22.5,30 -3.7,0 0,3.7 3.7,0 0,-3.7 z"/>
            <path d="m 101.6,66.1 0,3.7 3.7,0 0,3.7 3.7,0 0,-3.7 0,-3.7 -3.7,0 -3.7,0 z"/>
            <path d="m 97.8,62.3 0,3.7 3.7,0 3.7,0 3.7,0 0,3.7 0,3.7 3.7,0 3.7,0 3.7,0 0,-3.7 -3.7,0 0,-3.7 0,-3.7 -3.7,0 -3.7,0 -3.7,0 -3.7,0 -3.7,0 z"/>
            <path d="m 116.6,58.6 0,3.7 0,3.7 0,3.7 3.7,0 0,-3.7 0,-3.7 0,-3.7 -3.7,0 z"/>
            <path d="m 101.6,43.6 0,3.7 -3.7,0 0,3.7 -3.7,0 0,3.7 0,3.7 3.7,0 3.7,0 0,3.7 3.7,0 3.7,0 3.7,0 3.7,0 0,-3.7 -3.7,0 0,-3.7 0,-3.7 0,-3.7 -3.7,0 0,-3.7 -3.7,0 -3.7,0 z"/>
            <path d="m 112.8,47.4 0,3.7 0,3.7 0,3.7 3.7,0 3.7,0 0,3.7 0,3.7 3.7,0 0,-3.7 3.7,0 0,-3.7 0,-3.7 0,-3.7 -3.7,0 0,-3.7 -3.7,0 -3.7,0 -3.7,0 z"/>
            <path d="m 116.6,21.1 0,3.7 -3.7,0 0,3.7 0,3.7 -3.7,0 -3.7,0 -3.7,0 0,3.7 3.7,0 0,3.7 -3.7,0 0,3.7 3.7,0 3.7,0 0,3.7 3.7,0 3.7,0 3.7,0 0,-3.7 0,-3.7 3.7,0 0,-3.7 0,-3.7 0,-3.7 0,-3.7 0,-3.7 -3.7,0 -3.7,0 z m 7.5,18.7 0,3.7 3.7,0 3.7,0 0,-3.7 -3.7,0 -3.7,0 z"/>
            <path d="m 124.1,28.6 0,3.7 0,3.7 0,3.7 3.7,0 0,-3.7 3.7,0 3.7,0 0,-3.7 0,-3.7 -3.7,0 -3.7,0 -3.7,0 z"/>
            <path d="m 135.3,28.6 0,3.7 0,3.7 3.7,0 3.7,0 0,-3.7 0,-3.7 -3.7,0 -3.7,0 z"/>
            <path d="m 127.8,21.1 0,3.7 -3.7,0 0,3.7 3.7,0 3.7,0 3.7,0 3.7,0 3.7,0 3.7,0 3.7,0 0,-3.7 0,-3.7 -3.7,0 0,3.7 -3.7,0 -3.7,0 0,-3.7 -3.7,0 -3.7,0 -3.7,0 z"/>
            <path d="m 124.1,17.4 0,3.7 0,3.7 3.7,0 0,-3.7 3.7,0 0,-3.7 -3.7,0 -3.7,0 z"/>
            <path d="m 131.6,13.6 0,3.7 0,3.7 3.7,0 3.7,0 0,-3.7 0,-3.7 -3.7,0 -3.7,0 z"/>
            <path d="m 135.3,6.1 0,3.7 0,3.7 3.7,0 3.7,0 0,-3.7 0,-3.7 -3.7,0 -3.7,0 z"/>
            <path d="m 0.4,114.8 0,3.7 3.7,0 0,-3.7 -3.7,0 z m 3.7,3.7 0,3.7 3.7,0 0,-3.7 -3.7,0 z m 3.7,3.7 0,3.7 3.7,0 3.7,0 0,-3.7 -3.7,0 -3.7,0 z"/>
        </g>
        <g id="rNaNds">
            <path d="m 34.1,58.6 0,3.7 3.7,0 3.7,0 3.7,0 0,-3.7 -3.7,0 -3.7,0 -3.7,0 z"/>
            <path d="m 15.4,58.6 0,3.7 0,3.7 3.7,0 3.7,0 0,-3.7 0,-3.7 -3.7,0 -3.7,0 z"/>
            <path d="m 22.9,66.1 0,3.7 -3.7,0 0,3.7 0,3.7 0,3.7 3.7,0 0,-3.7 3.7,0 0,-3.7 0,-3.7 0,-3.7 -3.7,0 z"/>
            <path d="m 22.9,77.3 0,3.7 -3.7,0 0,3.7 0,3.7 3.7,0 0,3.7 3.7,0 3.7,0 0,-3.7 0,-3.7 0,-3.7 3.7,0 0,-3.7 -3.7,0 -3.7,0 -3.7,0 z"/>
            <path d="m 22.9,58.6 0,3.7 3.7,0 3.7,0 3.7,0 0,-3.7 -3.7,0 -3.7,0 -3.7,0 z"/>
            <path d="m 22.9,62.3 0,3.7 3.7,0 3.7,0 3.7,0 0,-3.7 -3.7,0 -3.7,0 -3.7,0 z"/>
            <path d="m 34.1,62.3 0,3.7 3.7,0 3.7,0 3.7,0 0,-3.7 -3.7,0 -3.7,0 -3.7,0 z"/>
            <path d="m 37.9,66.1 11.2,0 0,7.5 -11.2,0 z"/>
            <path d="m 49.1,69.8 0,3.7 -3.7,0 -3.7,0 -3.7,0 0,3.7 3.7,0 3.7,0 0,3.7 3.7,0 3.7,0 0,-3.7 0,-3.7 0,-3.7 -3.7,0 z"/>
            <path d="m 37.9,77.3 0,3.7 0,3.7 0,3.7 -3.7,0 -3.7,0 0,3.7 3.7,0 0,3.7 0,3.7 3.7,0 0,-3.7 3.7,0 0,3.7 0,3.7 0,3.7 0,3.7 3.7,0 0,-3.7 3.7,0 3.7,0 0,-3.7 0,-3.7 3.7,0 0,-3.7 3.7,0 0,-3.7 -3.7,0 0,-3.7 0,-3.7 0,-3.7 -3.7,0 -3.7,0 -3.7,0 0,-3.7 -3.7,0 -3.7,0 z"/>
            <path d="m 45.4,58.6 0,3.7 0,3.7 3.7,0 0,3.7 3.7,0 0,-3.7 0,-3.7 0,-3.7 -3.7,0 -3.7,0 z"/>
            <path d="m 52.9,58.6 0,3.7 0,3.7 0,3.7 0,3.7 3.7,0 3.7,0 3.7,0 0,-3.7 0,-3.7 -3.7,0 0,-3.7 0,-3.7 -3.7,0 -3.7,0 z"/>
            <path d="m 52.9,73.6 0,3.7 0,3.7 3.7,0 3.7,0 3.7,0 0,-3.7 0,-3.7 -3.7,0 -3.7,0 -3.7,0 z"/>
            <path d="m 56.6,81.1 0,3.7 0,3.7 0,3.7 3.7,0 0,3.7 3.7,0 3.7,0 0,-3.7 0,-3.7 -3.7,0 -3.7,0 0,-3.7 3.7,0 0,-3.7 -3.7,0 -3.7,0 z"/>
            <path d="m 64.1,81.1 0,3.7 -3.7,0 0,3.7 3.7,0 3.7,0 0,3.7 3.7,0 0,-3.7 0,-3.7 0,-3.7 -3.7,0 -3.7,0 z"/>
            <path d="m 64.1,73.6 0,3.7 0,3.7 3.7,0 3.7,0 3.7,0 3.7,0 3.7,0 0,-3.7 3.7,0 0,-3.7 -3.7,0 -3.7,0 -3.7,0 -3.7,0 -3.7,0 -3.7,0 z"/>
            <path d="m 71.6,81.1 0,3.7 0,3.7 0,3.7 3.7,0 3.7,0 3.7,0 0,-3.7 0,-3.7 0,-3.7 -3.7,0 -3.7,0 -3.7,0 z"/>
            <path d="m 79.1,66.1 0,3.7 -3.7,0 -3.7,0 -3.7,0 0,3.7 3.7,0 3.7,0 3.7,0 3.7,0 3.7,0 3.7,0 0,-3.7 -3.7,0 0,-3.7 -3.7,0 -3.7,0 z"/>
            <path d="m 75.4,47.4 0,3.7 -3.7,0 0,3.7 0,3.7 0,3.7 0,3.7 0,3.7 3.7,0 3.7,0 0,-3.7 0,-3.7 0,-3.7 0,-3.7 0,-3.7 0,-3.7 -3.7,0 z"/>
            <path d="m 82.9,77.3 0,3.7 3.7,0 3.7,0 3.7,0 0,3.7 3.7,0 3.7,0 3.7,0 0,3.7 3.7,0 0,-3.7 3.7,0 0,-3.7 3.7,0 0,-3.7 -3.7,0 -3.7,0 -3.7,0 -3.7,0 -3.7,0 -3.7,0 -3.7,0 -3.7,0 -3.7,0 z"/>
            <path d="m 82.9,81.1 0,3.7 0,3.7 0,3.7 0,3.7 3.7,0 3.7,0 3.7,0 3.7,0 0,3.7 3.7,0 3.7,0 0,-3.7 -3.7,0 0,-3.7 -3.7,0 -3.7,0 0,-3.7 0,-3.7 0,-3.7 -3.7,0 -3.7,0 -3.7,0 z"/>
            <path d="m 94.1,84.8 0,3.7 0,3.7 3.7,0 3.7,0 0,3.7 3.7,0 3.7,0 0,-3.7 0,-3.7 -3.7,0 0,-3.7 -3.7,0 -3.7,0 -3.7,0 z"/>
            <path d="m 94.1,58.6 0,3.7 0,3.7 -3.7,0 0,3.7 3.7,0 3.7,0 0,-3.7 0,-3.7 3.7,0 0,-3.7 -3.7,0 -3.7,0 z"/>
            <path d="m 0.4,24.9 0,3.7 0,3.7 3.7,0 3.7,0 0,-3.7 -3.7,0 0,-3.7 -3.7,0 z"/>
        </g>
    </g>
</svg>
