<?xml version="1.0" encoding="UTF-8" standalone="no"?>
<!-- Created with Inkscape (http://www.inkscape.org/) -->

<svg
   xmlns:dc="http://purl.org/dc/elements/1.1/"
   xmlns:cc="http://creativecommons.org/ns#"
   xmlns:rdf="http://www.w3.org/1999/02/22-rdf-syntax-ns#"
   xmlns:svg="http://www.w3.org/2000/svg"
   xmlns="http://www.w3.org/2000/svg"
   xmlns:sodipodi="http://sodipodi.sourceforge.net/DTD/sodipodi-0.dtd"
   xmlns:inkscape="http://www.inkscape.org/namespaces/inkscape"
   width="1272"
   height="1002"
   id="svg2"
   version="1.1"
   inkscape:version="0.48.2 r9819"
   sodipodi:docname="Cartogram—2012_Electoral_Vote.svg">
  <defs
     id="defs4" />
  <sodipodi:namedview
     id="base"
     pagecolor="#ffffff"
     bordercolor="#666666"
     borderopacity="1.0"
     inkscape:pageopacity="0.0"
     inkscape:pageshadow="2"
     inkscape:zoom="0.70710678"
     inkscape:cx="1057.97"
     inkscape:cy="441.21482"
     inkscape:document-units="px"
     inkscape:current-layer="layer2"
     showgrid="false"
     inkscape:window-width="1920"
     inkscape:window-height="1152"
     inkscape:window-x="0"
     inkscape:window-y="0"
     inkscape:window-maximized="1"
     fit-margin-top="20"
     fit-margin-right="20"
     fit-margin-bottom="20"
     fit-margin-left="50">
    <inkscape:grid
       type="xygrid"
       id="grid2996"
       empspacing="30"
       visible="true"
       enabled="true"
       snapvisiblegridlinesonly="true"
       empcolor="#ffffff"
       empopacity="0.25098039"
       color="#0062ff"
       opacity="0.1254902"
       originx="-999px"
       originy="-308.98718px" />
  </sodipodi:namedview>
  <metadata
     id="metadata7">
    <rdf:RDF>
      <cc:Work
         rdf:about="">
        <dc:format>image/svg+xml</dc:format>
        <dc:type
           rdf:resource="http://purl.org/dc/dcmitype/StillImage" />
        <dc:title />
      </cc:Work>
    </rdf:RDF>
  </metadata>
  <g
     inkscape:groupmode="layer"
     id="layer2"
     inkscape:label="blocks"
     style="display:inline">
    <g
       id="g8379"
       style="stroke-width:2;stroke-miterlimit:4;stroke-dasharray:none"
       transform="translate(-1018.2338,257.38687)">
      <g
         id="g8324"
         style="stroke-width:2;stroke-miterlimit:4;stroke-dasharray:none">
        <path
           style="fill:#0049ff;fill-opacity:1;fill-rule:nonzero;stroke:#ffffff;stroke-width:2;stroke-linecap:round;stroke-linejoin:miter;stroke-miterlimit:4;stroke-opacity:1;stroke-dasharray:none"
           d="m 1050,212.375 0,30 0,30 0,30 0,30 30,0 0,-30 30,0 0,30 0,30 0,30 -30,0 0,-30 -30,0 0,30 0,30 0,30 30,0 0,30 30,0 0,30 30,0 0,30 0,30 30,0 0,30 30,0 30,0 30,0 30,0 0,-30 0,-30 0,-30 0,-30 0,-30 -30,0 -30,0 0,-30 -30,0 0,-30 -30,0 0,-30 0,-30 0,-30 0,-30 0,-30 -30,0 -30,0 -30,0 0,-30 -30,0 z"
           id="rect3808"
           inkscape:connector-curvature="0" />
        <path
           style="fill:#0049ff;fill-opacity:1;fill-rule:nonzero;stroke:#ffffff;stroke-width:2;stroke-linejoin:miter;stroke-miterlimit:4;stroke-opacity:1;stroke-dasharray:none"
           d="m 1050,182.375 0,30 30,0 0,30 30,0 30,0 30,0 0,-30 0,-30 -30,0 -30,0 -30,0 -30,0 z"
           id="rect3808-29"
           inkscape:connector-curvature="0" />
        <path
           style="fill:#0049ff;fill-opacity:1;fill-rule:nonzero;stroke:#ffffff;stroke-width:2;stroke-linejoin:miter;stroke-miterlimit:4;stroke-opacity:1;stroke-dasharray:none"
           d="m 1080,92.375 0,30 -30,0 0,30 0,30 30,0 30,0 30,0 30,0 30,0 0,-30 -30,0 0,-30 0,-30 -30,0 -30,0 -30,0 z"
           id="rect3808-64"
           inkscape:connector-curvature="0" />
        <path
           style="fill:#0049ff;fill-opacity:1;fill-rule:nonzero;stroke:#ffffff;stroke-width:2;stroke-linejoin:miter;stroke-miterlimit:4;stroke-opacity:1;stroke-dasharray:none"
           d="m 1170,242.375 0,30 0,30 0,30 0,30 0,30 30,0 0,-30 0,-30 0,-30 0,-30 30,0 0,-30 -30,0 -30,0 z"
           id="rect3808-64-1-9"
           inkscape:connector-curvature="0" />
        <path
           style="fill:#0049ff;fill-opacity:1;fill-rule:nonzero;stroke:#ffffff;stroke-linecap:round;stroke-linejoin:miter;stroke-opacity:1"
           d="m 1260,242.36218 90,0 0,90 -90,0 z"
           id="rect4847"
           inkscape:connector-curvature="0" />
        <path
           style="fill:#0049ff;fill-opacity:1;fill-rule:nonzero;stroke:#ffffff;stroke-width:2;stroke-linecap:round;stroke-linejoin:miter;stroke-miterlimit:4;stroke-opacity:1;stroke-dasharray:none"
           d="m 1320,332.375 0,30 -30,0 0,30 0,30 30,0 30,0 0,-30 0,-30 0,-30 -30,0 z"
           id="rect4851-7"
           inkscape:connector-curvature="0" />
        <path
           style="fill:#0049ff;fill-opacity:1;fill-rule:nonzero;stroke:#ffffff;stroke-width:2;stroke-linecap:round;stroke-linejoin:miter;stroke-miterlimit:4;stroke-opacity:1;stroke-dasharray:none"
           d="m 1470,92.375 0,30 0,30 -30,0 0,30 30,0 30,0 30,0 0,-30 0,-30 -30,0 0,-30 -30,0 z"
           id="rect5428-4"
           inkscape:connector-curvature="0" />
        <path
           style="fill:#0049ff;fill-opacity:1;fill-rule:nonzero;stroke:#ffffff;stroke-width:2;stroke-linecap:round;stroke-linejoin:miter;stroke-miterlimit:4;stroke-opacity:1;stroke-dasharray:none"
           d="m 1470,-87.625 0,30 0,30 0,30 0,30 0,30 0,30 30,0 0,30 30,0 0,-30 0,-30 0,-30 -30,0 0,-30 0,-30 0,-30 30,0 0,-30 -30,0 -30,0 z"
           id="rect5428-4-9"
           inkscape:connector-curvature="0" />
        <path
           style="fill:#0049ff;fill-opacity:1;fill-rule:nonzero;stroke:#ffffff;stroke-width:2;stroke-linecap:round;stroke-linejoin:miter;stroke-miterlimit:4;stroke-opacity:1;stroke-dasharray:none"
           d="m 1500,-57.625 0,30 0,30 0,30 30,0 0,30 30,0 30,0 0,-30 0,-30 0,-30 0,-30 -30,0 0,30 -30,0 0,-30 -30,0 z"
           id="rect5428-4-5"
           inkscape:connector-curvature="0" />
        <path
           style="fill:#0049ff;fill-opacity:1;fill-rule:nonzero;stroke:#ffffff;stroke-width:2;stroke-linecap:round;stroke-linejoin:miter;stroke-miterlimit:4;stroke-opacity:1;stroke-dasharray:none"
           d="m 1530,62.375 0,30 0,30 0,30 0,30 0,30 0,30 30,0 0,30 0,30 30,0 0,-30 30,0 0,-30 0,-30 0,-30 0,-30 0,-30 0,-30 -30,0 0,-30 -30,0 -30,0 z"
           id="rect5428-4-8"
           inkscape:connector-curvature="0" />
        <path
           style="fill:#0049ff;fill-opacity:1;fill-rule:nonzero;stroke:#ffffff;stroke-width:2;stroke-linecap:round;stroke-linejoin:miter;stroke-miterlimit:4;stroke-opacity:1;stroke-dasharray:none"
           d="m 1590,-87.625 0,30 30,0 30,0 0,-30 -30,0 -30,0 z m 60,30 0,30 0,30 0,30 0,30 0,30 30,0 30,0 30,0 0,-30 30,0 0,-30 0,-30 -30,0 0,30 -30,0 0,-30 0,-30 0,-30 -30,0 -30,0 z"
           id="rect5428-4-3"
           inkscape:connector-curvature="0" />
        <path
           style="fill:#0049ff;fill-opacity:1;fill-rule:nonzero;stroke:#ffffff;stroke-width:2;stroke-linecap:round;stroke-linejoin:miter;stroke-miterlimit:4;stroke-opacity:1;stroke-dasharray:none"
           d="m 1680,92.375 0,30 0,30 0,30 0,30 0,30 30,0 30,0 0,30 30,0 0,-30 30,0 0,-30 0,-30 0,-30 0,-30 -30,0 0,30 -30,0 0,-30 0,-30 -30,0 -30,0 z"
           id="rect5428-4-2"
           inkscape:connector-curvature="0" />
        <path
           style="fill:#0049ff;fill-opacity:1;fill-rule:nonzero;stroke:#ffffff;stroke-width:2;stroke-linecap:round;stroke-linejoin:miter;stroke-miterlimit:4;stroke-opacity:1;stroke-dasharray:none"
           d="m 1830,242.375 0,30 -30,0 -30,0 0,30 -30,0 0,30 30,0 30,0 30,0 30,0 30,0 30,0 30,0 30,0 0,-30 -30,0 -30,0 -30,0 0,-30 -30,0 0,-30 -30,0 z"
           id="rect5428-4-38"
           inkscape:connector-curvature="0" />
        <path
           style="fill:#0049ff;fill-opacity:1;fill-rule:nonzero;stroke:#ffffff;stroke-width:2;stroke-linecap:round;stroke-linejoin:miter;stroke-miterlimit:4;stroke-opacity:1;stroke-dasharray:none"
           d="m 1650,452.375 0,30 0,30 30,0 30,0 30,0 30,0 0,30 0,30 0,30 0,30 30,0 0,30 30,0 0,30 30,0 0,-30 30,0 0,-30 0,-30 0,-30 0,-30 0,-30 -30,0 -30,0 0,-30 -30,0 -30,0 -30,0 -30,0 0,-30 -30,0 -30,0 z m 180,240 -30,0 0,30 30,0 0,-30 z"
           id="rect5428-4-1"
           inkscape:connector-curvature="0" />
        <path
           style="fill:#0049ff;fill-opacity:1;fill-rule:nonzero;stroke:#ffffff;stroke-width:2;stroke-linecap:round;stroke-linejoin:miter;stroke-miterlimit:4;stroke-opacity:1;stroke-dasharray:none"
           d="m 1860,242.375 0,30 30,0 0,30 30,0 0,-30 0,-30 -30,0 -30,0 z"
           id="rect5428-4-88"
           inkscape:connector-curvature="0" />
        <path
           style="fill:#0049ff;fill-opacity:1;fill-rule:nonzero;stroke:#ffffff;stroke-width:2;stroke-linecap:round;stroke-linejoin:miter;stroke-miterlimit:4;stroke-opacity:1;stroke-dasharray:none"
           d="m 1830,212.375 0,30 30,0 30,0 30,0 0,30 0,30 30,0 30,0 30,0 0,-30 -30,0 0,-30 0,-30 -30,0 -30,0 -30,0 -30,0 -30,0 z"
           id="rect5428-4-89"
           inkscape:connector-curvature="0" />
        <path
           style="fill:#0049ff;fill-opacity:1;fill-rule:nonzero;stroke:#ffffff;stroke-width:2;stroke-linecap:round;stroke-linejoin:miter;stroke-miterlimit:4;stroke-opacity:1;stroke-dasharray:none"
           d="m 1980,182.375 0,30 0,30 0,30 30,0 0,-30 0,-30 0,-30 -30,0 z"
           id="rect5428-4-0"
           inkscape:connector-curvature="0" />
        <path
           style="fill:#0049ff;fill-opacity:1;fill-rule:nonzero;stroke:#ffffff;stroke-width:2;stroke-linecap:round;stroke-linejoin:miter;stroke-miterlimit:4;stroke-opacity:1;stroke-dasharray:none"
           d="m 1860,62.375 0,30 -30,0 0,30 -30,0 0,30 0,30 30,0 30,0 0,30 30,0 30,0 30,0 30,0 0,-30 -30,0 0,-30 0,-30 0,-30 -30,0 0,-30 -30,0 -30,0 z"
           id="rect5428-4-7"
           inkscape:connector-curvature="0" />
        <path
           style="fill:#0049ff;fill-opacity:1;fill-rule:nonzero;stroke:#ffffff;stroke-width:2;stroke-linecap:round;stroke-linejoin:miter;stroke-miterlimit:4;stroke-opacity:1;stroke-dasharray:none"
           d="m 1950,92.375 0,30 0,30 0,30 30,0 30,0 0,30 0,30 30,0 0,-30 30,0 0,-30 0,-30 0,-30 -30,0 0,-30 -30,0 -30,0 -30,0 z"
           id="rect5428-4-26"
           inkscape:connector-curvature="0" />
        <path
           style="fill:#0049ff;fill-opacity:1;fill-rule:nonzero;stroke:#ffffff;stroke-width:2;stroke-linecap:round;stroke-linejoin:miter;stroke-miterlimit:4;stroke-opacity:1;stroke-dasharray:none"
           d="m 1980,-117.625 0,30 -30,0 0,30 0,30 -30,0 -30,0 -30,0 0,30 30,0 0,30 -30,0 0,30 30,0 30,0 0,30 30,0 30,0 30,0 0,-30 0,-30 30,0 0,-30 0,-30 0,-30 0,-30 0,-30 -30,0 -30,0 z m 60,150 0,30 30,0 30,0 0,-30 -30,0 -30,0 z"
           id="rect5428-4-29"
           inkscape:connector-curvature="0" />
        <path
           style="fill:#0049ff;fill-opacity:1;fill-rule:nonzero;stroke:#ffffff;stroke-width:2;stroke-linecap:round;stroke-linejoin:miter;stroke-miterlimit:4;stroke-opacity:1;stroke-dasharray:none"
           d="m 2040,-57.625 0,30 0,30 0,30 30,0 0,-30 30,0 30,0 0,-30 0,-30 -30,0 -30,0 -30,0 z"
           id="rect5428-4-72"
           inkscape:connector-curvature="0" />
        <path
           style="fill:#0049ff;fill-opacity:1;fill-rule:nonzero;stroke:#ffffff;stroke-width:2;stroke-linecap:round;stroke-linejoin:miter;stroke-miterlimit:4;stroke-opacity:1;stroke-dasharray:none"
           d="m 2130,-57.625 0,30 0,30 30,0 30,0 0,-30 0,-30 -30,0 -30,0 z"
           id="rect5428-4-57"
           inkscape:connector-curvature="0" />
        <path
           style="fill:#0049ff;fill-opacity:1;fill-rule:nonzero;stroke:#ffffff;stroke-width:2;stroke-linecap:round;stroke-linejoin:miter;stroke-miterlimit:4;stroke-opacity:1;stroke-dasharray:none"
           d="m 2070,-117.625 0,30 -30,0 0,30 30,0 30,0 30,0 30,0 30,0 30,0 30,0 0,-30 0,-30 -30,0 0,30 -30,0 -30,0 0,-30 -30,0 -30,0 -30,0 z"
           id="rect5428-4-33"
           inkscape:connector-curvature="0" />
        <path
           style="fill:#0049ff;fill-opacity:1;fill-rule:nonzero;stroke:#ffffff;stroke-width:2;stroke-linecap:round;stroke-linejoin:miter;stroke-miterlimit:4;stroke-opacity:1;stroke-dasharray:none"
           d="m 2040,-147.625 0,30 0,30 30,0 0,-30 30,0 0,-30 -30,0 -30,0 z"
           id="rect5428-4-95"
           inkscape:connector-curvature="0" />
        <path
           style="fill:#0049ff;fill-opacity:1;fill-rule:nonzero;stroke:#ffffff;stroke-width:2;stroke-linecap:round;stroke-linejoin:miter;stroke-miterlimit:4;stroke-opacity:1;stroke-dasharray:none"
           d="m 2100,-177.625 0,30 0,30 30,0 30,0 0,-30 0,-30 -30,0 -30,0 z"
           id="rect5428-4-35"
           inkscape:connector-curvature="0" />
        <path
           style="fill:#0049ff;fill-opacity:1;fill-rule:nonzero;stroke:#ffffff;stroke-width:2;stroke-linecap:round;stroke-linejoin:miter;stroke-miterlimit:4;stroke-opacity:1;stroke-dasharray:none"
           d="m 2130,-237.625 0,30 0,30 30,0 30,0 0,-30 0,-30 -30,0 -30,0 z"
           id="rect5428-4-293"
           inkscape:connector-curvature="0" />
        <path
           style="fill:#0049ff;fill-opacity:1;fill-rule:nonzero;stroke:#ffffff;stroke-width:2;stroke-linecap:round;stroke-linejoin:miter;stroke-miterlimit:4;stroke-opacity:1;stroke-dasharray:none"
           d="m 1050,632.36218 0,30 30,0 0,-30 -30,0 z m 30,30 0,30 30,0 0,-30 -30,0 z m 30,30 0,30 30,0 30,0 0,-30 -30,0 -30,0 z"
           id="rect5428-4-03"
           inkscape:connector-curvature="0" />
      </g>
      <g
         id="g8353"
         style="stroke-width:2;stroke-miterlimit:4;stroke-dasharray:none">
        <path
           style="fill:#ff0044;fill-opacity:1;fill-rule:nonzero;stroke:#ffffff;stroke-width:2;stroke-linejoin:miter;stroke-miterlimit:4;stroke-opacity:1;stroke-dasharray:none"
           d="m 1320,182.375 0,30 30,0 30,0 30,0 0,-30 -30,0 -30,0 -30,0 z"
           id="rect3808-64-1-9-1-8-6"
           inkscape:connector-curvature="0" />
        <path
           style="fill:#ff0044;fill-opacity:1;fill-rule:nonzero;stroke:#ffffff;stroke-width:2;stroke-linejoin:miter;stroke-miterlimit:4;stroke-opacity:1;stroke-dasharray:none"
           d="m 1170,182.375 0,30 0,30 30,0 30,0 0,-30 0,-30 -30,0 -30,0 z"
           id="rect3808-64-1"
           inkscape:connector-curvature="0" />
        <path
           style="fill:#ff0044;fill-opacity:1;fill-rule:nonzero;stroke:#ffffff;stroke-width:2;stroke-linejoin:miter;stroke-miterlimit:4;stroke-opacity:1;stroke-dasharray:none"
           d="m 1230,242.375 0,30 -30,0 0,30 0,30 0,30 30,0 0,-30 30,0 0,-30 0,-30 0,-30 -30,0 z"
           id="rect3808-64-1-9-1"
           inkscape:connector-curvature="0" />
        <path
           style="fill:#ff0044;fill-opacity:1;fill-rule:nonzero;stroke:#ffffff;stroke-width:2;stroke-linejoin:miter;stroke-miterlimit:4;stroke-opacity:1;stroke-dasharray:none"
           d="m 1230,332.375 0,30 -30,0 0,30 0,30 30,0 0,30 30,0 30,0 0,-30 0,-30 0,-30 30,0 0,-30 -30,0 -30,0 -30,0 z"
           id="rect3808-64-1-9-1-1"
           inkscape:connector-curvature="0" />
        <path
           style="fill:#ff0044;fill-opacity:1;fill-rule:nonzero;stroke:#ffffff;stroke-width:2;stroke-linejoin:miter;stroke-miterlimit:4;stroke-opacity:1;stroke-dasharray:none"
           d="m 1230,182.375 0,30 30,0 30,0 30,0 0,-30 -30,0 -30,0 -30,0 z"
           id="rect3808-64-1-9-1-11"
           inkscape:connector-curvature="0" />
        <path
           style="fill:#ff0044;fill-opacity:1;fill-rule:nonzero;stroke:#ffffff;stroke-width:2;stroke-linejoin:miter;stroke-miterlimit:4;stroke-opacity:1;stroke-dasharray:none"
           d="m 1230,212.375 0,30 30,0 30,0 30,0 0,-30 -30,0 -30,0 -30,0 z"
           id="rect3808-64-1-9-1-17"
           inkscape:connector-curvature="0" />
        <path
           inkscape:connector-curvature="0"
           style="fill:#ff0044;fill-opacity:1;fill-rule:nonzero;stroke:#ffffff;stroke-width:2;stroke-linejoin:miter;stroke-miterlimit:4;stroke-opacity:1;stroke-dasharray:none"
           d="m 1320,212.375 0,30 30,0 30,0 30,0 0,-30 -30,0 -30,0 -30,0 z"
           id="rect3808-64-1-9-1-8-6-2" />
        <path
           style="fill:#ff0044;fill-opacity:1;fill-rule:nonzero;stroke:#ffffff;stroke-linecap:round;stroke-linejoin:miter;stroke-opacity:1"
           d="m 1350,242.36218 90,0 0,60 -90,0 z"
           id="rect4849"
           inkscape:connector-curvature="0" />
        <path
           style="fill:#ff0044;fill-opacity:1;fill-rule:nonzero;stroke:#ffffff;stroke-width:2;stroke-linecap:round;stroke-linejoin:miter;stroke-miterlimit:4;stroke-opacity:1;stroke-dasharray:none"
           d="m 1440,272.375 0,30 -30,0 -30,0 -30,0 0,30 30,0 30,0 0,30 30,0 30,0 0,-30 0,-30 0,-30 -30,0 z"
           id="rect4851"
           inkscape:connector-curvature="0" />
        <path
           style="fill:#ff0044;fill-opacity:1;fill-rule:nonzero;stroke:#ffffff;stroke-width:2;stroke-linecap:round;stroke-linejoin:miter;stroke-miterlimit:4;stroke-opacity:1;stroke-dasharray:none"
           d="m 1350,332.375 0,30 0,30 0,30 -30,0 -30,0 0,30 30,0 0,30 0,30 30,0 0,-30 30,0 0,30 0,30 0,30 0,30 30,0 0,-30 30,0 30,0 0,-30 0,-30 30,0 0,-30 30,0 0,-30 -30,0 0,-30 0,-30 0,-30 -30,0 -30,0 -30,0 0,-30 -30,0 -30,0 z"
           id="rect4851-4"
           inkscape:connector-curvature="0" />
        <path
           style="fill:#ff0044;fill-opacity:1;fill-rule:nonzero;stroke:#ffffff;stroke-width:2;stroke-linecap:round;stroke-linejoin:miter;stroke-miterlimit:4;stroke-opacity:1;stroke-dasharray:none"
           d="m 1410,182.375 0,30 0,30 30,0 0,30 30,0 0,-30 0,-30 0,-30 -30,0 -30,0 z"
           id="rect4851-9"
           inkscape:connector-curvature="0" />
        <path
           style="fill:#ff0044;fill-opacity:1;fill-rule:nonzero;stroke:#ffffff;stroke-width:2;stroke-linecap:round;stroke-linejoin:miter;stroke-miterlimit:4;stroke-opacity:1;stroke-dasharray:none"
           d="m 1470,182.375 0,30 0,30 0,30 0,30 30,0 30,0 30,0 0,-30 0,-30 -30,0 0,-30 0,-30 -30,0 -30,0 z"
           id="rect4851-5"
           inkscape:connector-curvature="0" />
        <path
           style="fill:#ff0044;fill-opacity:1;fill-rule:nonzero;stroke:#ffffff;stroke-width:2;stroke-linecap:round;stroke-linejoin:miter;stroke-miterlimit:4;stroke-opacity:1;stroke-dasharray:none"
           d="m 1470,302.375 0,30 0,30 30,0 30,0 30,0 0,-30 0,-30 -30,0 -30,0 -30,0 z"
           id="rect4851-90"
           inkscape:connector-curvature="0" />
        <path
           style="fill:#ff0044;fill-opacity:1;fill-rule:nonzero;stroke:#ffffff;stroke-width:2;stroke-linecap:round;stroke-linejoin:miter;stroke-miterlimit:4;stroke-opacity:1;stroke-dasharray:none"
           d="m 1500,362.375 0,30 0,30 0,30 30,0 0,30 30,0 30,0 0,-30 0,-30 -30,0 -30,0 0,-30 30,0 0,-30 -30,0 -30,0 z"
           id="rect4851-94"
           inkscape:connector-curvature="0" />
        <path
           style="fill:#ff0044;fill-opacity:1;fill-rule:nonzero;stroke:#ffffff;stroke-width:2;stroke-linecap:round;stroke-linejoin:miter;stroke-miterlimit:4;stroke-opacity:1;stroke-dasharray:none"
           d="m 1560,362.375 0,30 -30,0 0,30 30,0 30,0 0,30 30,0 0,-30 0,-30 0,-30 -30,0 -30,0 z"
           id="rect5428"
           inkscape:connector-curvature="0" />
        <path
           style="fill:#ff0044;fill-opacity:1;fill-rule:nonzero;stroke:#ffffff;stroke-width:2;stroke-linecap:round;stroke-linejoin:miter;stroke-miterlimit:4;stroke-opacity:1;stroke-dasharray:none"
           d="m 1560,302.375 0,30 0,30 30,0 30,0 30,0 30,0 30,0 0,-30 30,0 0,-30 -30,0 -30,0 -30,0 -30,0 -30,0 -30,0 z"
           id="rect5428-3"
           inkscape:connector-curvature="0" />
        <path
           style="fill:#ff0044;fill-opacity:1;fill-rule:nonzero;stroke:#ffffff;stroke-width:2;stroke-linecap:round;stroke-linejoin:miter;stroke-miterlimit:4;stroke-opacity:1;stroke-dasharray:none"
           d="m 1620,362.375 0,30 0,30 0,30 30,0 30,0 30,0 0,-30 0,-30 0,-30 -30,0 -30,0 -30,0 z"
           id="rect5428-0"
           inkscape:connector-curvature="0" />
        <path
           style="fill:#ff0044;fill-opacity:1;fill-rule:nonzero;stroke:#ffffff;stroke-width:2;stroke-linecap:round;stroke-linejoin:miter;stroke-miterlimit:4;stroke-opacity:1;stroke-dasharray:none"
           d="m 1680,242.375 0,30 -30,0 -30,0 -30,0 0,30 30,0 30,0 30,0 30,0 30,0 30,0 0,-30 -30,0 0,-30 -30,0 -30,0 z"
           id="rect5428-6"
           inkscape:connector-curvature="0" />
        <path
           style="fill:#ff0044;fill-opacity:1;fill-rule:nonzero;stroke:#ffffff;stroke-width:2;stroke-linecap:round;stroke-linejoin:miter;stroke-miterlimit:4;stroke-opacity:1;stroke-dasharray:none"
           d="m 1650,92.375 0,30 -30,0 0,30 0,30 0,30 0,30 0,30 30,0 30,0 0,-30 0,-30 0,-30 0,-30 0,-30 0,-30 -30,0 z"
           id="rect5428-8"
           inkscape:connector-curvature="0" />
        <path
           style="fill:#ff0044;fill-opacity:1;fill-rule:nonzero;stroke:#ffffff;stroke-width:2;stroke-linecap:round;stroke-linejoin:miter;stroke-miterlimit:4;stroke-opacity:1;stroke-dasharray:none"
           d="m 1710,332.375 0,30 30,0 30,0 30,0 0,30 30,0 30,0 30,0 0,30 30,0 0,-30 30,0 0,-30 30,0 0,-30 -30,0 -30,0 -30,0 -30,0 -30,0 -30,0 -30,0 -30,0 -30,0 z"
           id="rect5428-38"
           inkscape:connector-curvature="0" />
        <path
           style="fill:#ff0044;fill-opacity:1;fill-rule:nonzero;stroke:#ffffff;stroke-width:2;stroke-linecap:round;stroke-linejoin:miter;stroke-miterlimit:4;stroke-opacity:1;stroke-dasharray:none"
           d="m 1710,362.375 0,30 0,30 0,30 0,30 30,0 30,0 30,0 30,0 0,30 30,0 30,0 0,-30 -30,0 0,-30 -30,0 -30,0 0,-30 0,-30 0,-30 -30,0 -30,0 -30,0 z"
           id="rect5428-1"
           inkscape:connector-curvature="0" />
        <path
           style="fill:#ff0044;fill-opacity:1;fill-rule:nonzero;stroke:#ffffff;stroke-width:2;stroke-linecap:round;stroke-linejoin:miter;stroke-miterlimit:4;stroke-opacity:1;stroke-dasharray:none"
           d="m 1800,392.375 0,30 0,30 30,0 30,0 0,30 30,0 30,0 0,-30 0,-30 -30,0 0,-30 -30,0 -30,0 -30,0 z"
           id="rect5428-2"
           inkscape:connector-curvature="0" />
        <path
           style="fill:#ff0044;fill-opacity:1;fill-rule:nonzero;stroke:#ffffff;stroke-width:2;stroke-linecap:round;stroke-linejoin:miter;stroke-miterlimit:4;stroke-opacity:1;stroke-dasharray:none"
           d="m 1800,182.375 0,30 0,30 -30,0 0,30 30,0 30,0 0,-30 0,-30 30,0 0,-30 -30,0 -30,0 z"
           id="rect5428-9"
           inkscape:connector-curvature="0" />
        <path
           style="fill:#ff0044;fill-opacity:1;fill-rule:nonzero;stroke:#ffffff;stroke-width:2;stroke-linecap:round;stroke-linejoin:miter;stroke-miterlimit:4;stroke-opacity:1;stroke-dasharray:none"
           d="m 1050,-87.637817 0,30 0,30 30,0 30,0 0,-30 -30,0 0,-30 -30,0 z"
           id="rect5428-4-59"
           inkscape:connector-curvature="0" />
      </g>
    </g>
  </g>
  <g
     inkscape:groupmode="layer"
     id="layer3"
     inkscape:label="pi"
     style="display:inline">
    <path
       transform="matrix(0.85714287,0,0,0.85714286,-836.14289,473.24817)"
       style="fill:#ff0044;fill-opacity:1;fill-rule:nonzero;stroke:none;display:inline"
       d="m 2365.4709,269.52356 c 42.9891,38.92001 46.2877,105.32045 7.3677,148.30953 -19.9052,21.98632 -48.1803,34.52909 -77.8386,34.52909 l 0,-105 z"
       id="path9952-2"
       inkscape:connector-curvature="0" />
    <g
       transform="translate(-999,258.625)"
       style="font-size:24px;font-style:normal;font-variant:normal;font-weight:normal;font-stretch:normal;line-height:125%;letter-spacing:-2.06000018px;word-spacing:0px;fill:#ffffff;fill-opacity:1;stroke:none;display:inline;font-family:Frutiger Neue 45;-inkscape-font-specification:'Frutiger Neue 45,'"
       id="text10045">
      <path
         d="m 2061.5039,516.68334 c 1.152,2e-5 2.2,0.20802 3.144,0.624 0.944,0.40002 1.752,0.98402 2.424,1.752 0.672,0.75201 1.192,1.65601 1.56,2.712 0.368,1.05601 0.552,2.23201 0.552,3.528 0,1.32801 -0.184,2.52801 -0.552,3.6 -0.368,1.056 -0.896,1.96 -1.584,2.712 -0.688,0.752 -1.512,1.336 -2.472,1.752 -0.96,0.4 -2.04,0.6 -3.24,0.6 -1.2,0 -2.288,-0.2 -3.264,-0.6 -0.96,-0.416 -1.792,-0.992 -2.496,-1.728 -0.688,-0.752 -1.224,-1.656 -1.608,-2.712 -0.368,-1.05599 -0.552,-2.23199 -0.552,-3.528 0,-1.34399 0.192,-2.55199 0.576,-3.624 0.384,-1.07199 0.928,-1.98399 1.632,-2.736 0.704,-0.75198 1.552,-1.32798 2.544,-1.728 0.992,-0.41598 2.104,-0.62398 3.336,-0.624 m -0.216,1.656 c -0.848,2e-5 -1.624,0.16802 -2.328,0.504 -0.688,0.33602 -1.288,0.80801 -1.8,1.416 -0.496,0.60801 -0.88,1.34401 -1.152,2.208 -0.272,0.84801 -0.408,1.79201 -0.408,2.832 0,1.05601 0.136,2.01601 0.408,2.88 0.272,0.84801 0.656,1.584 1.152,2.208 0.512,0.608 1.12,1.08 1.824,1.416 0.704,0.32 1.488,0.48 2.352,0.48 0.832,0 1.592,-0.16 2.28,-0.48 0.704,-0.336 1.304,-0.808 1.8,-1.416 0.496,-0.608 0.88,-1.33599 1.152,-2.184 0.272,-0.86399 0.408,-1.81599 0.408,-2.856 0,-1.07199 -0.136,-2.03999 -0.408,-2.904 -0.256,-0.87999 -0.632,-1.61599 -1.128,-2.208 -0.496,-0.60799 -1.096,-1.07198 -1.8,-1.392 -0.704,-0.33598 -1.488,-0.50398 -2.352,-0.504"
         id="path10213"
         inkscape:connector-curvature="0" />
      <path
         d="m 2072.4384,531.46734 c 0,0.4 -0.01,0.816 -0.024,1.248 -0.016,0.416 -0.04,0.744 -0.072,0.984 l -1.824,0 c 0.048,-0.512 0.08,-1.088 0.096,-1.728 0.016,-0.656 0.024,-1.312 0.024,-1.968 l 0,-14.448 1.968,0 0,4.872 c 0,0.60801 -0.01,1.21601 -0.024,1.824 0,0.59201 -0.016,1.06401 -0.048,1.416 l 0.048,0 c 0.416,-0.75199 0.992,-1.34399 1.728,-1.776 0.736,-0.44799 1.56,-0.67199 2.472,-0.672 0.816,10e-6 1.544,0.16001 2.184,0.48 0.64,0.32001 1.184,0.76001 1.632,1.32 0.448,0.56001 0.792,1.22401 1.032,1.992 0.24,0.75201 0.36,1.56801 0.36,2.448 0,0.92801 -0.12,1.79201 -0.36,2.592 -0.24,0.784 -0.592,1.472 -1.056,2.064 -0.464,0.576 -1.032,1.032 -1.704,1.368 -0.656,0.32 -1.408,0.48 -2.256,0.48 -0.912,0 -1.728,-0.224 -2.448,-0.672 -0.704,-0.464 -1.264,-1.072 -1.68,-1.824 l -0.048,0 m 3.888,0.888 c 0.544,0 1.04,-0.12 1.488,-0.36 0.448,-0.24 0.824,-0.568 1.128,-0.984 0.32,-0.416 0.56,-0.912 0.72,-1.488 0.176,-0.59199 0.264,-1.23999 0.264,-1.944 0,-0.67199 -0.08,-1.29599 -0.24,-1.872 -0.16,-0.59199 -0.392,-1.09599 -0.696,-1.512 -0.304,-0.43199 -0.68,-0.76799 -1.128,-1.008 -0.432,-0.23999 -0.936,-0.35999 -1.512,-0.36 -0.528,10e-6 -1.024,0.12001 -1.488,0.36 -0.448,0.24001 -0.848,0.57601 -1.2,1.008 -0.336,0.41601 -0.608,0.92001 -0.816,1.512 -0.192,0.57601 -0.288,1.20801 -0.288,1.896 0,0.67201 0.088,1.29601 0.264,1.872 0.192,0.576 0.456,1.08 0.792,1.512 0.336,0.416 0.736,0.752 1.2,1.008 0.464,0.24 0.968,0.36 1.512,0.36"
         id="path10215"
         inkscape:connector-curvature="0" />
      <path
         d="m 2083.5863,522.25134 c 0.576,-0.35199 1.216,-0.60799 1.92,-0.768 0.704,-0.17599 1.4,-0.26399 2.088,-0.264 0.848,10e-6 1.568,0.12001 2.16,0.36 0.608,0.24001 1.096,0.57601 1.464,1.008 0.384,0.41601 0.656,0.92001 0.816,1.512 0.176,0.57601 0.264,1.21601 0.264,1.92 0,0.38401 -0.01,0.78401 -0.024,1.2 0,0.41601 0,0.81601 0,1.2 0,0.36801 -0.01,0.69601 -0.024,0.984 0,0.288 0,0.504 0,0.648 0,0.672 0.01,1.344 0.024,2.016 0.032,0.656 0.072,1.2 0.12,1.632 l -1.776,0 c -0.016,-0.096 -0.032,-0.24 -0.048,-0.432 0,-0.208 0,-0.4 0,-0.576 0,-0.16 0,-0.344 0,-0.552 0.016,-0.208 0.032,-0.4 0.048,-0.576 l -0.048,0 c -0.368,0.72 -0.904,1.288 -1.608,1.704 -0.688,0.4 -1.512,0.6 -2.472,0.6 -1.28,0 -2.304,-0.328 -3.072,-0.984 -0.752,-0.656 -1.128,-1.536 -1.128,-2.64 0,-1.29599 0.552,-2.27999 1.656,-2.952 1.104,-0.67199 2.704,-1.00799 4.8,-1.008 0.256,1e-5 0.536,0.008 0.84,0.024 0.304,1e-5 0.592,0.016 0.864,0.048 l 0,-0.216 c 0,-1.03999 -0.256,-1.84799 -0.768,-2.424 -0.496,-0.59199 -1.296,-0.88799 -2.4,-0.888 -0.608,10e-6 -1.224,0.10401 -1.848,0.312 -0.624,0.20801 -1.2,0.49601 -1.728,0.864 l -0.12,-1.752 m 6.888,5.496 c -0.16,-0.016 -0.352,-0.024 -0.576,-0.024 -0.224,-0.016 -0.48,-0.024 -0.768,-0.024 -1.584,10e-6 -2.776,0.20001 -3.576,0.6 -0.8,0.40001 -1.2,1.04801 -1.2,1.944 0,0.656 0.224,1.176 0.672,1.56 0.464,0.368 1.08,0.552 1.848,0.552 1.184,0 2.08,-0.368 2.688,-1.104 0.608,-0.736 0.912,-1.90399 0.912,-3.504"
         id="path10217"
         inkscape:connector-curvature="0" />
      <path
         d="m 2096.2342,523.59534 c 0.368,-0.71999 0.888,-1.29599 1.56,-1.728 0.672,-0.43199 1.456,-0.64799 2.352,-0.648 0.912,10e-6 1.656,0.24001 2.232,0.72 0.576,0.48001 0.984,1.12801 1.224,1.944 0.416,-0.84799 0.968,-1.50399 1.656,-1.968 0.688,-0.46399 1.504,-0.69599 2.448,-0.696 1.408,10e-6 2.424,0.45601 3.048,1.368 0.624,0.91201 0.936,2.17601 0.936,3.792 l 0,7.32 -1.968,0 0,-6.432 c 0,-0.68799 -0.032,-1.30399 -0.096,-1.848 -0.048,-0.54399 -0.16,-1.00799 -0.336,-1.392 -0.176,-0.38399 -0.432,-0.67199 -0.768,-0.864 -0.32,-0.20799 -0.744,-0.31199 -1.272,-0.312 -1.024,10e-6 -1.824,0.40801 -2.4,1.224 -0.56,0.81601 -0.84,2.09601 -0.84,3.84 l 0,5.784 -1.968,0 0,-7.008 c 0,-1.37599 -0.176,-2.35999 -0.528,-2.952 -0.352,-0.59199 -0.952,-0.88799 -1.8,-0.888 -1.008,10e-6 -1.824,0.42401 -2.448,1.272 -0.624,0.83201 -0.936,2.06401 -0.936,3.696 l 0,5.88 -1.968,0 0,-8.568 c 0,-0.65599 -0.01,-1.29599 -0.024,-1.92 -0.016,-0.63999 -0.048,-1.21599 -0.096,-1.728 l 1.872,0 c 0.032,0.28801 0.048,0.63201 0.048,1.032 0.016,0.40001 0.024,0.76001 0.024,1.08 l 0.048,0"
         id="path10219"
         inkscape:connector-curvature="0" />
      <path
         d="m 2114.06,522.25134 c 0.576,-0.35199 1.216,-0.60799 1.92,-0.768 0.704,-0.17599 1.4,-0.26399 2.088,-0.264 0.848,10e-6 1.568,0.12001 2.16,0.36 0.608,0.24001 1.096,0.57601 1.464,1.008 0.384,0.41601 0.656,0.92001 0.816,1.512 0.176,0.57601 0.264,1.21601 0.264,1.92 0,0.38401 -0.01,0.78401 -0.024,1.2 0,0.41601 0,0.81601 0,1.2 0,0.36801 -0.01,0.69601 -0.024,0.984 0,0.288 0,0.504 0,0.648 0,0.672 0.01,1.344 0.024,2.016 0.032,0.656 0.072,1.2 0.12,1.632 l -1.776,0 c -0.016,-0.096 -0.032,-0.24 -0.048,-0.432 0,-0.208 0,-0.4 0,-0.576 0,-0.16 0,-0.344 0,-0.552 0.016,-0.208 0.032,-0.4 0.048,-0.576 l -0.048,0 c -0.368,0.72 -0.904,1.288 -1.608,1.704 -0.688,0.4 -1.512,0.6 -2.472,0.6 -1.28,0 -2.304,-0.328 -3.072,-0.984 -0.752,-0.656 -1.128,-1.536 -1.128,-2.64 0,-1.29599 0.552,-2.27999 1.656,-2.952 1.104,-0.67199 2.704,-1.00799 4.8,-1.008 0.256,1e-5 0.536,0.008 0.84,0.024 0.304,1e-5 0.592,0.016 0.864,0.048 l 0,-0.216 c 0,-1.03999 -0.256,-1.84799 -0.768,-2.424 -0.496,-0.59199 -1.296,-0.88799 -2.4,-0.888 -0.608,10e-6 -1.224,0.10401 -1.848,0.312 -0.624,0.20801 -1.2,0.49601 -1.728,0.864 l -0.12,-1.752 m 6.888,5.496 c -0.16,-0.016 -0.352,-0.024 -0.576,-0.024 -0.224,-0.016 -0.48,-0.024 -0.768,-0.024 -1.584,10e-6 -2.776,0.20001 -3.576,0.6 -0.8,0.40001 -1.2,1.04801 -1.2,1.944 0,0.656 0.224,1.176 0.672,1.56 0.464,0.368 1.08,0.552 1.848,0.552 1.184,0 2.08,-0.368 2.688,-1.104 0.608,-0.736 0.912,-1.90399 0.912,-3.504"
         id="path10221"
         inkscape:connector-curvature="0" />
    </g>
    <path
       transform="matrix(0.85714287,0,0,0.85714286,-836.14289,473.24817)"
       style="fill:#0049ff;fill-opacity:1;fill-rule:nonzero;stroke:none;display:inline"
       d="m 2295,452.36218 c -57.9899,0 -105,-47.0101 -105,-104.99999 0,-57.9899 47.0101,-105.00001 105,-105.00001 26.0461,0 51.1626,9.6806 70.4711,27.16154 L 2295,347.36218 z"
       id="path9952"
       inkscape:connector-curvature="0" />
  </g>
</svg>
