<?xml version="1.0" encoding="UTF-8" standalone="no"?>
<svg
   xmlns:dc="http://purl.org/dc/elements/1.1/"
   xmlns:cc="http://creativecommons.org/ns#"
   xmlns:rdf="http://www.w3.org/1999/02/22-rdf-syntax-ns#"
   xmlns:svg="http://www.w3.org/2000/svg"
   xmlns="http://www.w3.org/2000/svg"
   xmlns:sodipodi="http://sodipodi.sourceforge.net/DTD/sodipodi-0.dtd"
   xmlns:inkscape="http://www.inkscape.org/namespaces/inkscape"
   version="1.1"
   id="svg3066"
   inkscape:version="0.48.2 r9819"
   width="100%"
   height="100%"
   sodipodi:docname="drawing-plain.svg">
  <metadata
     id="metadata3091">
    <rdf:RDF>
      <cc:Work
         rdf:about="">
        <dc:format>image/svg+xml</dc:format>
        <dc:type
           rdf:resource="http://purl.org/dc/dcmitype/StillImage" />
      </cc:Work>
    </rdf:RDF>
  </metadata>
  <defs
     id="defs3089" />
  <sodipodi:namedview
     pagecolor="#ffffff"
     bordercolor="#666666"
     borderopacity="1"
     objecttolerance="10"
     gridtolerance="10"
     guidetolerance="10"
     inkscape:pageopacity="0"
     inkscape:pageshadow="2"
     inkscape:window-width="1614"
     inkscape:window-height="956"
     id="namedview3087"
     showgrid="true"
     inkscape:zoom="11.313708"
     inkscape:cx="25.884045"
     inkscape:cy="999.17305"
     inkscape:window-x="0"
     inkscape:window-y="0"
     inkscape:window-maximized="0"
     inkscape:current-layer="svg3066">
    <inkscape:grid
       type="xygrid"
       id="grid3865" />
  </sodipodi:namedview>
  <path
     style="fill:#ffffff;stroke:#ffffff;stroke-width:1px;stroke-linecap:butt;stroke-linejoin:miter;stroke-opacity:1"
     d="M 13.93488,56.993659 25.266234,46.168224 24.664739,30.656735"
     id="path3093"
     inkscape:connector-curvature="0"
     sodipodi:nodetypes="ccc" />
  <rect
     class="frame"
     width="85"
     height="95"
     x="0"
     y="0"
     style="fill:#827e7a;"
     id="rect3068" />
  <rect
     class="innerFrame"
     width="75"
     height="80"
     x="5"
     y="10"
     style="fill:#ffffff;"
     id="rect3070" />
  <rect
     class="part1"
     width="65"
     height="10"
     x="10"
     y="15"
     id="rect3072" />
  <rect
     class="part2"
     width="15"
     height="25"
     x="60"
     y="30"
     id="rect3074" />
  <rect
     class="part3"
     width="15"
     height="30"
     x="60"
     y="60"
     id="rect3076" />
  <rect
     class="part4"
     width="10"
     height="5"
     x="45"
     y="46"
     id="rect3078" />
  <path
     class="part4"
     d="m 40,46 c 0,8.28427 -6.71573,15 -15,15 -8.28427,0 -15,-6.71573 -15,-15 0,-8.28427 6.71573,-15 15,-15 8.28427,0 15,6.71573 15,15 z"
     id="path3080" />
  <rect
     class="part5"
     width="45"
     height="25"
     x="10"
     y="65"
     id="rect3082" />
  <path
     class="part5"
     d="m 25.19015,30.001205 c 8.283606,0.105017 14.913662,6.90534 14.808645,15.188945 -0.08073,6.368171 -4.118421,11.759087 -9.745005,13.863983 -1.692379,0.633116 -3.528505,0.968945 -5.44394,0.944662 -3.892348,-0.04935 -7.613073,-1.6099 -10.376046,-4.351941 L 25,45 z"
     transform="translate(0,1.0000076)"
     id="path3824"
     inkscape:connector-curvature="0"
     sodipodi:nodetypes="csssccc"
     style="fill:#ff00ff" />
  <rect
     class="part6"
     width="10"
     height="5"
     x="45"
     y="35"
     id="rect3085" />
  <path
     style="fill:none;stroke:#ffffff;stroke-width:2.5;stroke-linecap:butt;stroke-linejoin:miter;stroke-miterlimit:4;stroke-opacity:1;stroke-dasharray:none"
     d="m 14,56.362183 11,-10 0,-16"
     id="path3863"
     inkscape:connector-curvature="0"
     sodipodi:nodetypes="ccc" />
</svg>
