<?xml version="1.0" encoding="utf-8"?>
<!-- Generator: Adobe Illustrator 17.0.0, SVG Export Plug-In . SVG Version: 6.00 Build 0)  -->
<!DOCTYPE svg PUBLIC "-//W3C//DTD SVG 1.1//EN" "http://www.w3.org/Graphics/SVG/1.1/DTD/svg11.dtd">
<svg version="1.1" id="Layer_1" xmlns="http://www.w3.org/2000/svg" xmlns:xlink="http://www.w3.org/1999/xlink" x="0px" y="0px"
	 width="512px" height="512px" viewBox="0 0 512 512" enable-background="new 0 0 512 512" xml:space="preserve">
<path d="M0,0v512h512V0H0z M458.089,338.306c-1.652,1.44-3.279,1.066-3.305,4.183
	c-0.03,3.494-0.671,11.757-0.777,14.428c-0.699,17.558-1.307,56.66,0.361,91.56c0.058,1.204-1.399,0.945-3.035,1.371
	c-1.76,0.458-3.135,1.182-5.353,1.639c-26.667,5.494-50.513,12.653-72.304,16.062c-78.751,12.32-127.934,12.44-161.271,6.954
	c-29.392-4.837-46.648-12.596-60.556-19.756c-17.725-9.125-48.031-26.067-66.48-52.263c-11.283-16.021-22.967-33.667-31.914-52.478
	c-11.872-24.96-17.286-52.169-18.43-77.133c-0.511-11.14-0.778-21.812,0.615-31.679c2.14-15.153,3.087-29.302,7.801-43.988
	c3.868-12.049,13.199-38.536,25.583-56.163c11.677-16.621,26.145-37.59,54.329-58.944c10.345-7.838,21.539-15.39,36.414-23.252
	c59.437-31.414,129.17-29.836,184.963-20.283c63.691,10.905,109.798,41.338,108.237,44.27v0l-51.467,49.837l-19.329,2.096
	c0,0,9.132-15.22,12.357-21.049c0.343-0.62,0.432-1.757,1.148-2.794c0.598-0.865-1.034-2.073-1.395-2.357
	c-7.327-5.754-17.478-22.298-68.168-41.991c-20.556-7.986-45.147-11.916-79.946-8.894c-30.242,2.627-55.909,14.688-75.002,27.692
	c-31.132,21.203-48.036,46.992-58.027,71.772c-7.367,18.273-10.116,35.171-11.823,42.128c-1.938,7.899-1.296,26.591-1.109,51.02
	c0.372,48.497,22.996,115.664,87.508,164.165c41.107,30.904,83.642,39.066,119.008,39.823c48.072,1.029,84.066-13.973,84.066-13.973
	V341.8l-88.729,3.726l44.714-25.151l127.62,1.863L458.089,338.306z"/>
</svg>
