<?xml version="1.0" encoding="UTF-8" standalone="no"?>
<!-- Generator: Adobe Illustrator 17.0.0, SVG Export Plug-In . SVG Version: 6.00 Build 0)  -->

<svg
   xmlns:dc="http://purl.org/dc/elements/1.1/"
   xmlns:cc="http://creativecommons.org/ns#"
   xmlns:rdf="http://www.w3.org/1999/02/22-rdf-syntax-ns#"
   xmlns:svg="http://www.w3.org/2000/svg"
   xmlns="http://www.w3.org/2000/svg"
   xmlns:sodipodi="http://sodipodi.sourceforge.net/DTD/sodipodi-0.dtd"
   xmlns:inkscape="http://www.inkscape.org/namespaces/inkscape"
   version="1.1"
   id="Layer_1"
   x="0px"
   y="0px"
   width="64"
   height="64"
   viewBox="0 0 64 64"
   enable-background="new 0 0 512 512"
   xml:space="preserve"
   inkscape:version="0.48.2 r9819"
   sodipodi:docname="logo-twitter.svg"><metadata
     id="metadata9"><rdf:RDF><cc:Work
         rdf:about=""><dc:format>image/svg+xml</dc:format><dc:type
           rdf:resource="http://purl.org/dc/dcmitype/StillImage" /></cc:Work></rdf:RDF></metadata><defs
     id="defs7" /><sodipodi:namedview
     pagecolor="#ffffff"
     bordercolor="#666666"
     borderopacity="1"
     objecttolerance="10"
     gridtolerance="10"
     guidetolerance="10"
     inkscape:pageopacity="0"
     inkscape:pageshadow="2"
     inkscape:window-width="1137"
     inkscape:window-height="904"
     id="namedview5"
     showgrid="true"
     inkscape:zoom="5.2149125"
     inkscape:cx="38.170335"
     inkscape:cy="36.505657"
     inkscape:window-x="26"
     inkscape:window-y="195"
     inkscape:window-maximized="0"
     inkscape:current-layer="Layer_1"><inkscape:grid
       type="xygrid"
       id="grid2986"
       empspacing="4"
       visible="true"
       enabled="true"
       snapvisiblegridlinesonly="true"
       spacingx="4px"
       spacingy="4px" /></sodipodi:namedview><path
     style="color:#000000;fill:#008000;fill-opacity:1;fill-rule:nonzero;stroke:none;stroke-width:2;stroke-linecap:round;stroke-linejoin:miter;stroke-miterlimit:4;stroke-opacity:1;stroke-dasharray:none;stroke-dashoffset:0;marker:none;visibility:visible;display:inline;overflow:visible;enable-background:accumulate"
     d="M 44.03125 6.59375 C 36.95 6.59375 31.1875 12.35625 31.1875 19.4375 C 31.1875 20.4425 31.312875 21.40525 31.53125 22.34375 C 20.874375 21.809 11.418125 16.69525 5.09375 8.9375 C 3.99 10.83125 3.375 13.05625 3.375 15.40625 C 3.375 19.855 5.621875 23.763125 9.0625 26.0625 C 6.960625 25.995875 4.97875 25.429 3.25 24.46875 C 3.24875 24.52225 3.25 24.571 3.25 24.625 C 3.25 30.8375 7.66525 36.00925 13.53125 37.1875 C 12.45525 37.4805 11.325625 37.65625 10.15625 37.65625 C 9.33 37.65625 8.533125 37.555625 7.75 37.40625 C 9.381875 42.50025 14.1075 46.209375 19.71875 46.3125 C 15.33025 49.75175 9.82025 51.8125 3.8125 51.8125 C 2.7775 51.8125 1.753125 51.74375 0.75 51.625 C 6.424625 55.263375 13.165 57.40625 20.40625 57.40625 C 43.9915 57.40625 56.875 37.850875 56.875 20.90625 C 56.875 20.350375 56.8685 19.80025 56.84375 19.25 C 59.349 17.4425 61.530875 15.19625 63.25 12.625 C 60.950625 13.645 58.468375 14.315 55.875 14.625 C 58.522125 13.038 60.574125 10.525625 61.53125 7.53125 C 59.053375 9.001 56.296 10.08125 53.375 10.65625 C 51.03625 8.164 47.719375 6.59375 44.03125 6.59375 z "
     id="rect2988" /></svg>