<?xml version="1.0" encoding="UTF-8" standalone="no"?>
<!-- Generator: Adobe Illustrator 17.0.0, SVG Export Plug-In . SVG Version: 6.00 Build 0)  -->

<svg
   xmlns:dc="http://purl.org/dc/elements/1.1/"
   xmlns:cc="http://creativecommons.org/ns#"
   xmlns:rdf="http://www.w3.org/1999/02/22-rdf-syntax-ns#"
   xmlns:svg="http://www.w3.org/2000/svg"
   xmlns="http://www.w3.org/2000/svg"
   xmlns:sodipodi="http://sodipodi.sourceforge.net/DTD/sodipodi-0.dtd"
   xmlns:inkscape="http://www.inkscape.org/namespaces/inkscape"
   version="1.1"
   id="Layer_1"
   x="0px"
   y="0px"
   width="64"
   height="64"
   viewBox="0 0 64 64"
   enable-background="new 0 0 512 512"
   xml:space="preserve"
   inkscape:version="0.48.2 r9819"
   sodipodi:docname="logo-google-groups.svg"><metadata
     id="metadata9"><rdf:RDF><cc:Work
         rdf:about=""><dc:format>image/svg+xml</dc:format><dc:type
           rdf:resource="http://purl.org/dc/dcmitype/StillImage" /></cc:Work></rdf:RDF></metadata><defs
     id="defs7" /><sodipodi:namedview
     pagecolor="#ffffff"
     bordercolor="#666666"
     borderopacity="1"
     objecttolerance="10"
     gridtolerance="10"
     guidetolerance="10"
     inkscape:pageopacity="0"
     inkscape:pageshadow="2"
     inkscape:window-width="1125"
     inkscape:window-height="977"
     id="namedview5"
     showgrid="true"
     inkscape:zoom="5.2149125"
     inkscape:cx="28.741294"
     inkscape:cy="38.347397"
     inkscape:window-x="0"
     inkscape:window-y="0"
     inkscape:window-maximized="0"
     inkscape:current-layer="Layer_1"><inkscape:grid
       type="xygrid"
       id="grid2986"
       empspacing="4"
       visible="true"
       enabled="true"
       snapvisiblegridlinesonly="true"
       spacingx="4px"
       spacingy="4px" /></sodipodi:namedview><path
     style="color:#000000;fill:#00ffff;fill-opacity:1;fill-rule:nonzero;stroke:none;stroke-width:2;stroke-linecap:round;stroke-linejoin:miter;stroke-miterlimit:4;stroke-dashoffset:0;stroke-opacity:1;marker:none;visibility:visible;display:inline;overflow:visible;enable-background:accumulate"
     d="M 34.65625 4.0625 C 29.74689 4.0583017 24.612266 4.889525 19.96875 7.34375 C 18.109375 8.32649 16.699375 9.27024 15.40625 10.25 C 11.88325 12.91924 10.084625 15.54737 8.625 17.625 C 7.077 19.82837 5.921 23.15013 5.4375 24.65625 C 4.84825 26.492 4.73625 28.26213 4.46875 30.15625 C 4.294625 31.38963 4.311125 32.70126 4.375 34.09375 C 4.518 37.21425 5.2035 40.63 6.6875 43.75 C 7.805875 46.10137 9.245875 48.30988 10.65625 50.3125 C 12.962375 53.587 16.753125 55.70313 18.96875 56.84375 C 20.70725 57.73876 22.8885 58.70787 26.5625 59.3125 C 30.729625 59.99824 36.874875 59.97751 46.71875 58.4375 C 49.442625 58.01138 52.416625 57.12425 55.75 56.4375 C 56.02725 56.38038 56.18625 56.27605 56.40625 56.21875 C 56.61075 56.1655 56.78845 56.213 56.78125 56.0625 C 56.572755 51.70001 56.66262 46.81975 56.75 44.625 C 56.76325 44.29113 56.84005 43.24926 56.84375 42.8125 C 56.847 42.42288 57.0435 42.46125 57.25 42.28125 L 59.3125 40.28125 L 43.34375 40.03125 L 37.75 43.1875 L 48.84375 42.71875 L 48.84375 55.03125 C 48.84375 55.03125 44.35275 56.90988 38.34375 56.78125 C 33.923 56.68662 28.607125 55.6755 23.46875 51.8125 C 15.40475 45.74988 12.57775 37.34338 12.53125 31.28125 C 12.507875 28.22762 12.414 25.89362 12.65625 24.90625 C 12.869625 24.03662 13.235375 21.94037 14.15625 19.65625 C 15.405125 16.55875 17.51475 13.30663 21.40625 10.65625 C 23.792875 9.03075 27.001 7.54713 30.78125 7.21875 C 35.131125 6.841 38.1805 7.31425 40.75 8.3125 C 47.08625 10.77412 48.365375 12.84326 49.28125 13.5625 C 49.326375 13.59801 49.5435 13.76688 49.46875 13.875 C 49.37925 14.00462 49.35537 14.14125 49.3125 14.21875 C 48.909375 14.94737 47.78125 16.84375 47.78125 16.84375 L 50.1875 16.59375 L 56.625 10.34375 C 56.820125 9.97725 51.055125 6.17562 43.09375 4.8125 C 40.478453 4.3647012 37.601866 4.065019 34.65625 4.0625 z "
     id="rect2988" /></svg>