<?xml version="1.0" encoding="UTF-8" standalone="no"?>
<!-- Generator: Adobe Illustrator 17.0.0, SVG Export Plug-In . SVG Version: 6.00 Build 0)  -->

<svg
   xmlns:dc="http://purl.org/dc/elements/1.1/"
   xmlns:cc="http://creativecommons.org/ns#"
   xmlns:rdf="http://www.w3.org/1999/02/22-rdf-syntax-ns#"
   xmlns:svg="http://www.w3.org/2000/svg"
   xmlns="http://www.w3.org/2000/svg"
   xmlns:sodipodi="http://sodipodi.sourceforge.net/DTD/sodipodi-0.dtd"
   xmlns:inkscape="http://www.inkscape.org/namespaces/inkscape"
   version="1.1"
   id="Layer_1"
   x="0px"
   y="0px"
   width="64"
   height="64"
   viewBox="0 0 64 64"
   enable-background="new 0 0 512 512"
   xml:space="preserve"
   inkscape:version="0.48.2 r9819"
   sodipodi:docname="logo-github.svg"><metadata
     id="metadata13"><rdf:RDF><cc:Work
         rdf:about=""><dc:format>image/svg+xml</dc:format><dc:type
           rdf:resource="http://purl.org/dc/dcmitype/StillImage" /></cc:Work></rdf:RDF></metadata><defs
     id="defs11">
	
	
</defs><sodipodi:namedview
     pagecolor="#ffffff"
     bordercolor="#666666"
     borderopacity="1"
     objecttolerance="10"
     gridtolerance="10"
     guidetolerance="10"
     inkscape:pageopacity="0"
     inkscape:pageshadow="2"
     inkscape:window-width="1223"
     inkscape:window-height="1021"
     id="namedview9"
     showgrid="true"
     inkscape:zoom="5.2149125"
     inkscape:cx="19.486595"
     inkscape:cy="42.748161"
     inkscape:window-x="0"
     inkscape:window-y="0"
     inkscape:window-maximized="0"
     inkscape:current-layer="Layer_1"><inkscape:grid
       type="xygrid"
       id="grid2990"
       empspacing="4"
       visible="true"
       enabled="true"
       snapvisiblegridlinesonly="true"
       spacingx="4px"
       spacingy="4px" /></sodipodi:namedview><path
     style="color:#000000;fill:#800080;fill-opacity:1;fill-rule:nonzero;stroke:none;stroke-width:2;marker:none;visibility:visible;display:inline;overflow:visible;enable-background:accumulate"
     d="M 32,1.3125 C 15.04725,1.3125 1.3125,15.04725 1.3125,32 1.3125,48.95275 15.04725,62.6875 32,62.6875 48.95275,62.6875 62.6875,48.95275 62.6875,32 62.6875,15.04725 48.95275,1.3125 32,1.3125 z m 0,4.90625 c 3.482375,0 6.856,0.688375 10.03125,2.03125 3.069375,1.298375 5.8175,3.131125 8.1875,5.5 2.369125,2.369125 4.233125,5.1495 5.53125,8.21875 1.34275,3.17525 2.03125,6.548875 2.03125,10.03125 0,3.482375 -0.68825,6.85625 -2.03125,10.03125 -1.298375,3.069125 -3.162125,5.818375 -5.53125,8.1875 -2.36925,2.369125 -5.118125,4.233125 -8.1875,5.53125 -0.77975,0.32975 -1.5725,0.625385 -2.375,0.875 l 0,-4.59375 c 0,-2.418 -0.841375,-4.20475 -2.5,-5.34375 1.039125,-0.09987 2.00575,-0.257625 2.875,-0.4375 0.869375,-0.179875 1.78075,-0.4415 2.75,-0.78125 0.969125,-0.33975 1.8555,-0.717875 2.625,-1.1875 0.769375,-0.46975 1.50925,-1.09425 2.21875,-1.84375 0.709375,-0.7495 1.301625,-1.582 1.78125,-2.53125 0.4795,-0.949125 0.84525,-2.108625 1.125,-3.4375 0.279625,-1.329 0.4375,-2.77625 0.4375,-4.375 0,-3.0975 -1.012875,-5.75925 -3.03125,-7.9375 C 48.856875,21.758 48.744,19.1615 47.625,16.34375 L 46.875,16.25 c -0.5195,-0.05988 -1.432375,0.1565 -2.78125,0.65625 C 42.744875,17.406 41.21,18.236 39.53125,19.375 c -2.378125,-0.6595 -4.84825,-1 -7.40625,-1 -2.578125,0 -5.036875,0.3405 -7.375,1 -1.059125,-0.719375 -2.05075,-1.311625 -3,-1.78125 -0.949375,-0.469625 -1.71175,-0.799 -2.28125,-0.96875 -0.5695,-0.169875 -1.10425,-0.27263 -1.59375,-0.3125 -0.489625,-0.04 -0.7975,-0.05125 -0.9375,-0.03125 -0.139875,0.02 -0.25263,0.0425 -0.3125,0.0625 -1.119125,2.837875 -1.2005,5.434375 -0.28125,7.8125 -2.018375,2.17825 -3.03125,4.839875 -3.03125,7.9375 0,1.59875 0.1265,3.046125 0.40625,4.375 0.279625,1.328875 0.676625,2.48825 1.15625,3.4375 0.4795,0.94925 1.07175,1.78175 1.78125,2.53125 0.7095,0.7495 1.44925,1.374125 2.21875,1.84375 0.769375,0.469875 1.6245,0.84775 2.59375,1.1875 0.96925,0.33975 1.912,0.601375 2.78125,0.78125 0.869375,0.179875 1.8045,0.337625 2.84375,0.4375 -1.63875,1.119 -2.46875,2.90575 -2.46875,5.34375 l 0,4.6875 C 23.719875,56.449125 22.84525,56.120625 21.96875,55.75 18.899625,54.451625 16.1505,52.587875 13.78125,50.21875 11.412125,47.8495 9.548125,45.100625 8.25,42.03125 6.90725,38.856125 6.21875,35.482375 6.21875,32 6.21875,28.517625 6.907125,25.143875 8.25,21.96875 9.548375,18.899625 11.412125,16.11925 13.78125,13.75 16.150375,11.38075 18.8995,9.548125 21.96875,8.25 25.144,6.907125 28.517625,6.21875 32,6.21875 z"
     id="rect2995"
     inkscape:connector-curvature="0"
     sodipodi:nodetypes="sssssscccsccccscccccccscccscscccccccsccscsccsccccscscs" /></svg>