<?xml version="1.0" encoding="utf-8"?>
<!-- Generator: Adobe Illustrator 17.0.0, SVG Export Plug-In . SVG Version: 6.00 Build 0)  -->
<!DOCTYPE svg PUBLIC "-//W3C//DTD SVG 1.1//EN" "http://www.w3.org/Graphics/SVG/1.1/DTD/svg11.dtd">
<svg version="1.1" id="Layer_1" xmlns="http://www.w3.org/2000/svg" xmlns:xlink="http://www.w3.org/1999/xlink" x="0px" y="0px"
	 width="512px" height="512px" viewBox="0 0 512 512" enable-background="new 0 0 512 512" xml:space="preserve">
<g>
	<path fill="#FFFFFF" d="M336.265,65.91C310.863,55.167,283.859,49.719,256,49.719c-27.859,0-54.863,5.448-80.265,16.191
		c-24.554,10.385-46.614,25.261-65.567,44.215s-33.828,41.014-44.215,65.567c-10.743,25.401-16.191,52.406-16.191,80.265
		s5.448,54.863,16.19,80.264c10.385,24.555,25.262,46.614,44.215,65.568c18.954,18.953,41.014,33.828,65.567,44.215
		c7.012,2.965,14.15,5.512,21.391,7.669v-37.521c0-19.504,6.555-33.734,19.665-42.686c-8.314-0.799-15.947-1.918-22.902-3.357
		c-6.954-1.439-14.309-3.517-22.063-6.235c-7.754-2.718-14.708-5.954-20.863-9.713c-6.156-3.757-12.07-8.633-17.746-14.629
		c-5.676-5.996-10.432-12.79-14.268-20.384c-3.837-7.594-6.875-16.707-9.112-27.338c-2.238-10.631-3.357-22.343-3.357-35.133
		c0-24.781,8.074-45.884,24.221-63.31c-7.354-19.025-6.555-39.888,2.398-62.591c0.479-0.16,1.279-0.319,2.398-0.479
		c1.12-0.16,3.637-0.08,7.554,0.24c3.916,0.319,8.154,1.159,12.71,2.518c4.556,1.358,10.631,3.916,18.226,7.673
		c7.594,3.757,15.628,8.513,24.101,14.268c18.705-5.276,38.369-7.914,58.994-7.914c20.464,0,40.209,2.638,59.234,7.914
		c13.43-9.112,25.54-15.667,36.331-19.665s18.266-5.755,22.422-5.276l5.996,0.719c8.952,22.542,9.753,43.405,2.398,62.591
		c16.147,17.426,24.221,38.53,24.221,63.31c0,12.79-1.12,24.501-3.357,35.133c-2.238,10.631-5.276,19.745-9.112,27.338
		c-3.837,7.594-8.593,14.388-14.268,20.384c-5.676,5.996-11.591,10.871-17.746,14.629c-6.156,3.757-13.11,6.995-20.863,9.713
		c-7.754,2.718-15.108,4.796-22.063,6.235c-6.954,1.439-14.589,2.558-22.902,3.357c13.269,9.112,19.905,23.342,19.905,42.686v36.803
		c6.42-1.997,12.755-4.313,18.993-6.951c24.555-10.385,46.614-25.262,65.568-44.215c18.953-18.953,33.828-41.014,44.215-65.567
		c10.744-25.4,16.191-52.406,16.191-80.265s-5.448-54.863-16.19-80.265c-10.385-24.554-25.262-46.614-44.215-65.567
		C382.879,91.172,360.82,76.297,336.265,65.91z"/>
	<path fill="#FFFFFF" d="M0,0v512h512V0H0z M256,501.566C120.378,501.566,10.434,391.622,10.434,256S120.378,10.434,256,10.434
		S501.566,120.378,501.566,256S391.622,501.566,256,501.566z"/>
</g>
</svg>
